<?xml version="1.0" encoding="UTF-8"?>
<svg id="_レイヤー_2" data-name="レイヤー 2" xmlns="http://www.w3.org/2000/svg" viewBox="0 0 400 90">
  <defs>
    <style>
      .cls-1 {
        fill: #fff;
      }

      .cls-2 {
        fill: #e75b57;
      }
    </style>
  </defs>
  <g id="_デザイン" data-name="デザイン">
    <rect class="cls-1" width="400" height="90"/>
    <g>
      <g>
        <path d="m180.34,42.65c3.99.28,7.65,2.07,7.65,7.08,0,6.47-4.8,9.27-11.59,9.27h-11.22v-31.72h10.57c6.47,0,10.78,2.32,10.78,8.13,0,4.07-2.44,6.18-6.18,7.03v.2Zm-8.05-10.08v7.89h2.68c2.32,0,4.23-1.18,4.23-3.99s-1.83-3.9-4.23-3.9h-2.68Zm3.94,20.94c2.72,0,4.51-1.02,4.51-3.94,0-2.56-1.79-3.82-4.47-3.82h-3.99v7.77h3.94Z"/>
        <path d="m217.84,43.14c0,11.39-5.57,16.27-13.5,16.27s-13.5-4.88-13.5-16.27,5.57-16.27,13.5-16.27,13.5,4.88,13.5,16.27Zm-7.93,0c0-8.05-1.99-10.98-5.57-10.98s-5.57,2.93-5.57,10.98,1.99,10.98,5.57,10.98,5.57-2.93,5.57-10.98Z"/>
        <path d="m248.09,43.14c0,11.39-5.57,16.27-13.5,16.27s-13.5-4.88-13.5-16.27,5.57-16.27,13.5-16.27,13.5,4.88,13.5,16.27Zm-7.93,0c0-8.05-1.99-10.98-5.57-10.98s-5.57,2.93-5.57,10.98,1.99,10.98,5.57,10.98,5.57-2.93,5.57-10.98Z"/>
        <path d="m274.93,33.17h-8.54v25.82h-7.32v-25.82h-8.54v-5.9h24.4v5.9Z"/>
        <path d="m304.61,27.28v31.72h-7.52v-13.22h-10.57v13.22h-7.52v-31.72h7.52v12.61h10.57v-12.61h7.52Z"/>
      </g>
      <g>
        <rect class="cls-2" x="92.13" y="23.34" width="41.27" height="41.27"/>
        <path id="camel" class="cls-1" d="m123.32,41.02v-1.98l-4.96-7.94h-1.71l-2.71,6.49-2.66-5.59h-1.49s-4.51,10.64-4.51,10.64v-10.1h-3.07v.89h-2.34v3.11h2.34v8.98c0,.8.65,1.44,1.44,1.44h1.53v9.9h3.13s0-4.48,0-4.48c0-2.48,2.15-4.5,4.81-4.52,0,0,.02,0,.03,0h0c4.35,0,7.87,3.29,7.87,7.35v1.65h2.29v-8.88h2.34v-4.91l-2.34-2.06Z"/>
      </g>
    </g>
  </g>
</svg>