<?xml version="1.0" encoding="UTF-8"?>
<svg id="_レイヤー_2" data-name="レイヤー 2" xmlns="http://www.w3.org/2000/svg" viewBox="0 0 62.41 30">
  <defs>
    <style>
      .cls-1 {
        fill: #fff;
      }
    </style>
  </defs>
  <g id="SPメニュー">
    <g>
      <g>
        <path class="cls-1" d="m2.95,20.32c-.57,0-1.08-.14-1.53-.41-.45-.27-.8-.65-1.05-1.15-.25-.5-.38-1.08-.38-1.74s.13-1.26.38-1.75c.25-.5.6-.88,1.05-1.15.45-.27.96-.41,1.53-.41.53,0,1,.12,1.42.35.42.23.76.56,1.02.98l-.93.54c-.17-.27-.38-.48-.63-.63-.25-.15-.55-.23-.88-.23-.37,0-.7.09-.98.28-.28.19-.5.46-.65.8-.15.35-.23.75-.23,1.21s.08.86.23,1.2c.15.34.37.61.65.8s.61.28.98.28c.33,0,.62-.07.88-.23.26-.15.47-.36.63-.63l.93.54c-.26.41-.6.74-1.02.97-.42.23-.89.35-1.42.35Z"/>
        <path class="cls-1" d="m6.36,20.17v-6.3h1.03v5.34h3.28v.96h-4.32Z"/>
        <path class="cls-1" d="m14.13,20.32c-.57,0-1.08-.14-1.53-.41-.45-.27-.8-.65-1.05-1.15-.25-.5-.38-1.08-.38-1.74s.13-1.26.38-1.75c.25-.5.6-.88,1.05-1.15.45-.27.96-.41,1.53-.41s1.08.14,1.52.41c.44.27.79.66,1.04,1.15.25.49.38,1.08.38,1.75s-.13,1.25-.38,1.74c-.26.49-.6.88-1.04,1.15-.44.27-.95.41-1.52.41Zm0-1.01c.38,0,.7-.09.98-.28s.49-.46.64-.8.23-.75.23-1.2-.08-.87-.23-1.21c-.15-.34-.37-.61-.64-.8-.28-.19-.6-.28-.98-.28s-.7.09-.98.28c-.28.19-.5.46-.65.8-.15.35-.23.75-.23,1.21s.08.86.23,1.2c.15.34.37.61.65.8s.61.28.98.28Z"/>
        <path class="cls-1" d="m20.31,20.3c-.53,0-1.01-.11-1.45-.33s-.79-.6-1.06-1.12l.87-.49c.18.3.4.54.66.71.26.17.6.26,1.02.26s.72-.08.89-.23c.17-.15.26-.36.26-.63,0-.17-.04-.31-.11-.43-.08-.12-.23-.23-.47-.34-.24-.1-.6-.21-1.09-.32-.58-.14-1.01-.36-1.29-.66-.28-.3-.42-.68-.42-1.14,0-.37.09-.69.27-.97.18-.28.43-.5.75-.65.32-.16.7-.23,1.13-.23.57,0,1.05.12,1.44.37s.69.54.89.88l-.82.63c-.1-.14-.22-.28-.36-.42-.14-.14-.3-.25-.49-.33-.19-.09-.41-.13-.68-.13-.31,0-.57.07-.76.2-.2.14-.29.34-.29.61,0,.12.03.24.09.35s.18.22.38.32c.2.1.5.2.9.3.72.16,1.24.41,1.56.73.32.32.48.73.48,1.22,0,.6-.21,1.06-.63,1.38s-.97.48-1.65.48Z"/>
        <path class="cls-1" d="m23.65,20.17v-6.3h4.21v.96h-3.18v1.64h2.9v.97h-2.9v1.76h3.28v.96h-4.31Z"/>
      </g>
      <g>
        <polygon class="cls-1" points="34.77 25.27 57.99 21.15 55.27 15.72 38.02 18.78 34.77 25.27"/>
        <polygon class="cls-1" points="32.41 30 62.41 30 59.11 23.39 33.44 27.95 32.41 30"/>
        <polygon class="cls-1" points="54.15 13.48 51.44 8.05 42.6 9.62 39.36 16.11 54.15 13.48"/>
        <polygon class="cls-1" points="47.41 0 43.94 6.95 50.32 5.82 47.41 0"/>
      </g>
    </g>
  </g>
</svg>