<?xml version="1.0" encoding="UTF-8"?>
<svg id="_レイヤー_2" data-name="レイヤー 2" xmlns="http://www.w3.org/2000/svg" viewBox="0 0 23.24 16.41">
  <defs>
    <style>
      .cls-1 {
        fill: #4d4d4d;
      }
    </style>
  </defs>
  <g id="_メニューバー" data-name="メニューバー">
    <g>
      <path class="cls-1" d="m22.24,16.41H1c-.55,0-1-.45-1-1V1C0,.45.45,0,1,0h21.24c.55,0,1,.45,1,1v14.41c0,.55-.45,1-1,1ZM2,14.41h19.24V2H2v12.41Z"/>
      <path class="cls-1" d="m12,10.21c-.2,0-.4-.06-.58-.18L.54,2.33C.09,2.02-.01,1.39.3.94c.32-.45.94-.56,1.39-.24l10.28,7.27L21.52.72c.44-.33,1.07-.25,1.4.19.33.44.25,1.07-.19,1.4l-10.12,7.69c-.18.14-.39.2-.6.2Z"/>
    </g>
  </g>
</svg>