<?xml version="1.0" encoding="UTF-8"?>
<svg id="_レイヤー_2" data-name="レイヤー 2" xmlns="http://www.w3.org/2000/svg" xmlns:xlink="http://www.w3.org/1999/xlink" viewBox="0 0 400 90">
  <defs>
    <style>
      .cls-1 {
        fill: #fff;
      }

      .cls-2 {
        clip-path: url(#clippath-1);
      }

      .cls-3 {
        clip-rule: evenodd;
      }

      .cls-4 {
        clip-path: url(#clippath);
      }

      .cls-5 {
        fill-rule: evenodd;
      }
    </style>
    <clipPath id="clippath">
      <path class="cls-3" d="m320.34,61.71l-4.62-11.03-4.57,11.03h-7.87l8.2-17.49-7.54-15.89h7.87l4.1,10.14,4.15-10.14h7.73l-7.59,15.84,8.3,17.54h-8.16Zm-24.76-16.79c0-1.45-.11-2.79-.33-4.03-.22-1.24-.54-2.32-.97-3.23-.42-.91-.95-1.63-1.58-2.15s-1.37-.78-2.22-.78-1.6.26-2.24.78c-.64.52-1.18,1.23-1.6,2.15-.42.91-.74,1.99-.94,3.23-.2,1.24-.31,2.59-.31,4.03s.1,2.8.31,4.06c.2,1.26.52,2.34.94,3.25.42.91.96,1.63,1.6,2.17.64.53,1.39.8,2.24.8s1.59-.27,2.22-.8,1.16-1.26,1.58-2.17c.42-.91.75-2,.97-3.25.22-1.26.33-2.61.33-4.06Zm7.73,0c0,2.64-.3,5.05-.9,7.24-.6,2.18-1.45,4.05-2.55,5.59-1.1,1.54-2.44,2.73-4.03,3.58-1.59.85-3.37,1.27-5.35,1.27s-3.76-.42-5.35-1.27c-1.59-.85-2.93-2.04-4.03-3.58-1.1-1.54-1.95-3.4-2.55-5.59-.6-2.18-.9-4.6-.9-7.24s.29-5.04.87-7.19c.58-2.15,1.42-3.99,2.52-5.52s2.44-2.7,4.03-3.54c1.59-.83,3.39-1.25,5.4-1.25s3.76.42,5.35,1.25c1.59.83,2.93,2.01,4.03,3.54s1.95,3.36,2.55,5.52c.6,2.15.9,4.55.9,7.19Zm-35.14,6.55c0-.75-.12-1.39-.35-1.91-.24-.52-.55-.94-.94-1.27-.39-.33-.83-.57-1.32-.73s-.97-.24-1.44-.24h-2.73v8.11h2.83c1.1,0,2.04-.33,2.81-.99.77-.66,1.16-1.65,1.16-2.97Zm-.61-13.34c0-1.29-.36-2.2-1.08-2.73s-1.57-.8-2.55-.8h-2.55v7.21h2.59c.91,0,1.74-.28,2.48-.85.74-.57,1.11-1.51,1.11-2.83Zm7.78,14.05c0,1.79-.29,3.29-.87,4.5-.58,1.21-1.34,2.18-2.29,2.92-.94.74-2,1.27-3.18,1.6-1.18.33-2.37.5-3.56.5h-11.08V28.32h10c1.04,0,2.14.11,3.3.33,1.16.22,2.22.64,3.18,1.25.96.61,1.76,1.49,2.4,2.62.64,1.13.97,2.59.97,4.39,0,1.98-.4,3.56-1.2,4.74s-1.78,2.04-2.95,2.57v.09c.63.16,1.26.44,1.89.85.63.41,1.19.94,1.7,1.58s.91,1.42,1.23,2.33c.31.91.47,1.95.47,3.11Zm-34,9.52l-7.73-20.32h-.14l.19,20.32h-6.74V28.32h8.3l7.69,20.61h.14l-.14-20.61h6.51v33.38h-8.06Zm-29.9-26.12h-.19l-2.83,14.19h5.71l-2.69-14.19Zm5,26.12l-1.37-6.08h-7.5l-1.37,6.08h-7.54l8.11-33.38h9.48l8.06,33.38h-7.87Zm-25.89-26.55v6.79h7.97v6.46h-7.92v13.3h-7.64V28.32h16.27v6.84h-8.68Zm-27.3,26.55h-9.57l-8.06-33.38h8.53l4.53,24.42h.09l4.48-24.42h8.2l-8.2,33.38Zm-28.15,0V28.32h7.59v33.38h-7.59Zm-11.22,0l-4.62-11.03-4.57,11.03h-7.87l8.2-17.49-7.54-15.89h7.87l4.1,10.14,4.15-10.14h7.73l-7.59,15.84,8.3,17.54h-8.16Zm-27.77,0V28.32h7.59v33.38h-7.59Zm-11.08-22.77c0-1.51-.36-2.59-1.08-3.25-.72-.66-1.6-.99-2.64-.99h-2.4v8.72h2.4c1.04,0,1.92-.39,2.64-1.16.72-.77,1.08-1.88,1.08-3.32Zm7.07-.14c0,1.85-.28,3.46-.85,4.81-.57,1.35-1.32,2.47-2.26,3.35-.94.88-2.01,1.53-3.21,1.96-1.19.42-2.4.64-3.63.64h-3.25v12.17h-7.4V28.32h10.37c1.19,0,2.4.17,3.61.52,1.21.35,2.31.92,3.3,1.72.99.8,1.79,1.88,2.4,3.23.61,1.35.92,3.02.92,5Z"/>
    </clipPath>
    <clipPath id="clippath-1">
      <rect x="-9.69" y="-196.97" width="419.13" height="1061.24"/>
    </clipPath>
  </defs>
  <g id="_デザイン" data-name="デザイン">
    <rect class="cls-1" width="400" height="90"/>
    <g>
      <path class="cls-5" d="m320.34,61.71l-4.62-11.03-4.57,11.03h-7.87l8.2-17.49-7.54-15.89h7.87l4.1,10.14,4.15-10.14h7.73l-7.59,15.84,8.3,17.54h-8.16Zm-24.76-16.79c0-1.45-.11-2.79-.33-4.03-.22-1.24-.54-2.32-.97-3.23-.42-.91-.95-1.63-1.58-2.15s-1.37-.78-2.22-.78-1.6.26-2.24.78c-.64.52-1.18,1.23-1.6,2.15-.42.91-.74,1.99-.94,3.23-.2,1.24-.31,2.59-.31,4.03s.1,2.8.31,4.06c.2,1.26.52,2.34.94,3.25.42.91.96,1.63,1.6,2.17.64.53,1.39.8,2.24.8s1.59-.27,2.22-.8,1.16-1.26,1.58-2.17c.42-.91.75-2,.97-3.25.22-1.26.33-2.61.33-4.06Zm7.73,0c0,2.64-.3,5.05-.9,7.24-.6,2.18-1.45,4.05-2.55,5.59-1.1,1.54-2.44,2.73-4.03,3.58-1.59.85-3.37,1.27-5.35,1.27s-3.76-.42-5.35-1.27c-1.59-.85-2.93-2.04-4.03-3.58-1.1-1.54-1.95-3.4-2.55-5.59-.6-2.18-.9-4.6-.9-7.24s.29-5.04.87-7.19c.58-2.15,1.42-3.99,2.52-5.52s2.44-2.7,4.03-3.54c1.59-.83,3.39-1.25,5.4-1.25s3.76.42,5.35,1.25c1.59.83,2.93,2.01,4.03,3.54s1.95,3.36,2.55,5.52c.6,2.15.9,4.55.9,7.19Zm-35.14,6.55c0-.75-.12-1.39-.35-1.91-.24-.52-.55-.94-.94-1.27-.39-.33-.83-.57-1.32-.73s-.97-.24-1.44-.24h-2.73v8.11h2.83c1.1,0,2.04-.33,2.81-.99.77-.66,1.16-1.65,1.16-2.97Zm-.61-13.34c0-1.29-.36-2.2-1.08-2.73s-1.57-.8-2.55-.8h-2.55v7.21h2.59c.91,0,1.74-.28,2.48-.85.74-.57,1.11-1.51,1.11-2.83Zm7.78,14.05c0,1.79-.29,3.29-.87,4.5-.58,1.21-1.34,2.18-2.29,2.92-.94.74-2,1.27-3.18,1.6-1.18.33-2.37.5-3.56.5h-11.08V28.32h10c1.04,0,2.14.11,3.3.33,1.16.22,2.22.64,3.18,1.25.96.61,1.76,1.49,2.4,2.62.64,1.13.97,2.59.97,4.39,0,1.98-.4,3.56-1.2,4.74s-1.78,2.04-2.95,2.57v.09c.63.16,1.26.44,1.89.85.63.41,1.19.94,1.7,1.58s.91,1.42,1.23,2.33c.31.91.47,1.95.47,3.11Zm-34,9.52l-7.73-20.32h-.14l.19,20.32h-6.74V28.32h8.3l7.69,20.61h.14l-.14-20.61h6.51v33.38h-8.06Zm-29.9-26.12h-.19l-2.83,14.19h5.71l-2.69-14.19Zm5,26.12l-1.37-6.08h-7.5l-1.37,6.08h-7.54l8.11-33.38h9.48l8.06,33.38h-7.87Zm-25.89-26.55v6.79h7.97v6.46h-7.92v13.3h-7.64V28.32h16.27v6.84h-8.68Zm-27.3,26.55h-9.57l-8.06-33.38h8.53l4.53,24.42h.09l4.48-24.42h8.2l-8.2,33.38Zm-28.15,0V28.32h7.59v33.38h-7.59Zm-11.22,0l-4.62-11.03-4.57,11.03h-7.87l8.2-17.49-7.54-15.89h7.87l4.1,10.14,4.15-10.14h7.73l-7.59,15.84,8.3,17.54h-8.16Zm-27.77,0V28.32h7.59v33.38h-7.59Zm-11.08-22.77c0-1.51-.36-2.59-1.08-3.25-.72-.66-1.6-.99-2.64-.99h-2.4v8.72h2.4c1.04,0,1.92-.39,2.64-1.16.72-.77,1.08-1.88,1.08-3.32Zm7.07-.14c0,1.85-.28,3.46-.85,4.81-.57,1.35-1.32,2.47-2.26,3.35-.94.88-2.01,1.53-3.21,1.96-1.19.42-2.4.64-3.63.64h-3.25v12.17h-7.4V28.32h10.37c1.19,0,2.4.17,3.61.52,1.21.35,2.31.92,3.3,1.72.99.8,1.79,1.88,2.4,3.23.61,1.35.92,3.02.92,5Z"/>
      <g class="cls-4">
        <g>
          <rect x="-9.69" y="-196.97" width="419.13" height="1061.24"/>
          <g class="cls-2">
            <rect x="69.86" y="25.79" width="260.27" height="38.45"/>
          </g>
        </g>
      </g>
    </g>
  </g>
</svg>