<?xml version="1.0" encoding="UTF-8"?>
<svg id="_レイヤー_2" data-name="レイヤー 2" xmlns="http://www.w3.org/2000/svg" viewBox="0 0 54.09 30">
  <defs>
    <style>
      .cls-1 {
        fill: #fff;
      }

      .cls-2 {
        fill: #e35577;
      }
    </style>
  </defs>
  <g id="_デザイン" data-name="デザイン">
    <g>
      <g>
        <path class="cls-2" d="m0,18.17v-6.3h1.03l1.81,3.02,1.78-3.02h1.05v6.3h-1.06v-4.49l-1.48,2.56h-.61l-1.49-2.56v4.49H0Z"/>
        <path class="cls-2" d="m6.95,18.17v-6.3h4.21v.96h-3.18v1.64h2.9v.97h-2.9v1.76h3.28v.96h-4.31Z"/>
        <path class="cls-2" d="m12.22,18.17v-6.3h1.03l2.97,4.47v-4.47h1.05v6.3h-1l-3.02-4.6v4.6h-1.03Z"/>
        <path class="cls-2" d="m20.88,18.29c-.79,0-1.39-.21-1.8-.63-.41-.42-.62-1.04-.62-1.88v-3.92h1.05v3.86c0,.54.12.93.36,1.17.24.24.58.36,1,.36s.76-.12,1-.36c.24-.24.36-.63.36-1.17v-3.86h1.04v3.92c0,.83-.2,1.46-.61,1.88-.41.42-1,.63-1.79.63Z"/>
      </g>
      <g>
        <polygon class="cls-2" points="51.73 4.73 28.52 8.85 31.23 14.28 48.49 11.21 51.73 4.73"/>
        <polygon class="cls-2" points="54.09 0 24.09 0 27.4 6.61 53.07 2.05 54.09 0"/>
        <polygon class="cls-2" points="32.35 16.52 35.07 21.95 43.91 20.38 47.15 13.89 32.35 16.52"/>
        <polygon class="cls-2" points="39.09 30 42.57 23.05 36.19 24.18 39.09 30"/>
        <polygon class="cls-1" points="48.49 11.21 31.23 14.28 32.35 16.52 47.15 13.89 48.49 11.21"/>
        <polygon class="cls-1" points="36.19 24.18 42.57 23.05 43.91 20.38 35.07 21.95 36.19 24.18"/>
        <polygon class="cls-1" points="53.07 2.05 27.4 6.61 28.52 8.85 51.73 4.73 53.07 2.05"/>
      </g>
    </g>
  </g>
</svg>