<?xml version="1.0" encoding="UTF-8"?>
<svg id="_レイヤー_2" data-name="レイヤー 2" xmlns="http://www.w3.org/2000/svg" viewBox="0 0 563 352.91">
  <defs>
    <style>
      .cls-1 {
        fill: #fff;
      }

      .cls-2 {
        fill: none;
        stroke: #231815;
        stroke-linejoin: round;
        stroke-width: .7px;
      }

      .cls-3 {
        fill: #333;
      }

      .cls-4 {
        fill: #e35577;
      }
    </style>
  </defs>
  <g id="_デザイン" data-name="デザイン">
    <g>
      <g>
        <rect class="cls-4" width="330" height="45"/>
        <g>
          <path class="cls-1" d="m23.82,29.49l-.3-.05-.39-.07-.62-.09-.69-.23-.46-.16-.87-.37-.62-.34-.28-.21-.39-.28-.64-.57-.51-.44-.28-.44-.21-.39v-.46l.21-.39.25-.32.39-.21.23-.07.23-.09h.3l.3.07.23.14.55.51.09.16.09.09.67.53.28.21.25.11.46.25.51.18.37.18.32.09.23.05h.18l.18-.02.21.05.14-.02.34.02.55.02.34-.09h.34l.28-.05.3-.02.25-.07.18-.09.3-.09.39-.23.51-.41.32-.39.07-.18.14-.34.05-.44-.07-.57-.39-.62-.46-.28-.25-.11-.34-.11-.32-.09-.34-.05-.34-.09-.32-.05-.3-.07-.32-.02-.48-.09-.48-.05-.25-.07-.48-.05-.92-.16-.32-.07-.28-.09-.46-.11-.46-.16-.32-.14-.37-.14-.51-.25-.37-.23-.09-.05-.25-.21-.3-.28-.16-.14-.14-.18-.18-.28-.11-.21-.23-.37-.23-.9v-.67l.05-.39.07-.53.09-.34.09-.23.11-.23.09-.21.16-.25.25-.34.71-.71.23-.11.32-.23.39-.18.3-.23.25-.14.21-.09.21-.02.23-.14.83-.23.44-.07.53-.07.25-.05.3-.02.51-.05.46.02h.21l.16.02.8.07.14.05h.18l.23.05.21.05.28.05.6.23.23.14.21.09.3.18.57.25.32.3.51.39.44.46.39.55.21.39-.05.69-.05.14-.09.16-.18.16-.41.25-.44.16-.37-.02-.37-.16-.23-.16-.25-.25-.39-.41-.32-.28-.21-.16-.39-.21-.25-.21-.53-.23-.37-.09-.62-.07-.41-.02-.62.02-.55.05-.46.02-.69.14-.67.3-.28.16-.37.25-.46.41-.14.34-.09.28-.02.41.09.41.14.37.11.16.18.14.32.25.48.18.71.21.44.09.28.07.25.02.3.05.21.05.25.11h.16l.23.02h.46l.28.07.39.07.46.11.23.07.23.02.09.07.6.07,1.06.28.51.23.48.21.39.3.14.14.32.23.34.39.14.28.14.25.09.16.05.18.14.37.05.32.02.09.05.05.02.32v.85l-.09.53-.09.37-.11.32-.11.23-.05.16-.16.28-.21.3-.18.21-.16.21-.11.11-.16.21-.21.21-.28.18-.39.25-.23.14-.16.09-.23.11-.23.09-.16.07-.32.09-.46.16-.6.14-.55.05-.34.05-.46.02h-.9l-.55-.02Z"/>
          <path class="cls-1" d="m36.72,29.14l-.44-.11-.32-.32-.09-.32.02-.53v-.92l.02-.55-.05-.37.02-.53-.05-.57.02-.3.02-.25-.07-.39v-.71l.05-.55-.05-.46.07-.41-.02-.28v-.41l-.07-.41.02-.28v-.37l-.07-.64-.02-.39.07-.69v-.67l.02-.62-.02-.46v-2.21l-.02-.46.09-.37.11-.21.14-.14.3-.21.44-.05h.41l.48.02.37.11.18.21.18.3.02.41.02.57v.39l-.02.25.05.39-.02.57v.55l.05.39-.02.57-.02.71v.46l.02.32v.57l.02.51-.02.62.02,1.08-.05.64v.3l.02.21v1.29l.02.37v1.2l.05.25v1.08l-.02.53-.11.64-.11.25-.11.14-.16.07-.41.16h-.48l-.18.02-.3-.02Z"/>
          <path class="cls-1" d="m44.54,29.17l-.48-.32-.18-.34-.07-.37.02-.41.05-.44-.02-.44v-.3l-.02-.41v-.44l.05-.32-.02-.6-.05-.44-.07-.44v-.69l.02-.39-.02-.39.02-.41v-.25l.05-.64v-.69l-.05-.34v-.21l.05-.37-.05-.41v-.16l.05-.41-.02-.57.02-.51-.05-.39.02-.23-.02-.3-.02-.46-.02-.41v-.62l.02-.44.02-.28v-.23l.05-.37.05-.3.11-.09.41-.23.34-.02.44-.02.51.05.48.09.3.21.37.46.23.34.39.55.32.51.3.37.3.46.32.41.14.18.23.41.25.32.39.44.3.41.25.28.46.55.55.74.34.55.55.74.23.25.18.28.3.44.41.48.41.64.23.28.16.21.23.18h.25l.07-.11.05-.51.02-.48v-2.3l.05-.64v-.41l-.02-.44v-.41l.05-.32v-1.54l-.05-.23.02-.37-.02-.46v-.37l-.02-.34v-.64l.02-.44.11-.41.18-.14.25-.14.21-.05.3-.02.25-.07h.67l.28.14.21.23.16.37.05.6-.05.53-.02.25.05.44-.02.34.02.32-.02.34.02.23v.9l.02.67v1.2l.07.34v.21l-.05.3.05.48-.02.25.02.21-.07.25v2.71l-.02.64.02.34v2.6l.07.39-.05.55-.25.23-.18.09-.23.02-.51-.05-.74.02-.48-.09-.3-.21-.32-.41-.39-.53-.92-1.31-.44-.57-.23-.32-.51-.76-.55-.78-.41-.53-.34-.39-.23-.34-.21-.21-.48-.69-.3-.37-.21-.21-.16-.3-.28-.3-.53-.71-.44-.64-.28-.37-.3-.32-.18-.25-.14-.14-.23-.09-.21.11-.02.44.02.53v.46l-.02.48.05.71v.94l.02.94.02.57.07.44-.02.71v.97l-.05.64v.34l-.02.48.02.37-.02.3v.41l-.05.37-.16.3-.23.16-.21.07-.37.07h-.3l-.16.05-.48-.05Z"/>
          <path class="cls-1" d="m69.06,29.63l-.41-.05-.44-.14-.48-.09-.23-.07-.37-.11-.64-.18-.44-.18-.83-.46-.46-.37-.32-.21-.25-.23-.44-.37-.39-.41-.28-.39-.37-.46-.34-.53-.28-.62-.18-.51-.14-.28-.09-.3-.11-.46-.07-.37-.05-.25-.07-.39-.05-.44-.05-.21.02-.28-.05-.48.05-.37v-.18l.02-.39.09-.37.05-.34.09-.32.05-.25.09-.3.11-.21.07-.21.05-.16.18-.34.21-.37.14-.21.23-.44.37-.44.32-.46.53-.51.53-.44.23-.21.37-.23.46-.3.25-.14.28-.18.25-.14.25-.09.39-.11.57-.18.55-.18.48-.07.3-.07h.53l.46-.02.53.07.57.05.16.05.34.05.46.11.34.07.23.07.57.21.34.18.25.11.21.14.69.32.44.34.37.25.25.23.16.14.28.34.34.44.16.32.07.34-.14.46-.23.34-.32.25-.48.25-.51.02-.32-.11-.34-.3-.46-.44-.53-.44-.57-.37-.53-.3-.41-.16-.37-.11-1.29-.23-.44-.05-.11.02-.51.05-.78.14-.51.11-.34.16-.51.25-.48.3-.28.23-.21.21-.18.16-.64.74-.11.21-.16.23-.25.55-.18.46-.11.37-.16.51-.09.67v.78l.07.39.05.55.05.39.09.37.14.32.14.28.16.23.14.25.21.21.16.21.21.32.18.23.34.3.67.55.76.44.64.25.62.16.41.09.53.05.9-.07.46-.07.6-.16.44-.14.78-.37.48-.32.34-.32.44-.48.21-.3.23-.34.23-.41.23-.46.09-.37.05-.3-.02-.23-.3-.18h-.94l-.64.02-.23-.05h-.85l-.69.02-.28.02-.32.02-.21-.05h-.34l-.48-.05-.37-.14-.18-.28-.09-.37-.07-.62v-.46l.09-.25.18-.28.23-.14.23-.07h.94l.87-.07h.69l.3-.02h.51l1.63.02h.44l.92.05.8.07.23.07.25.14.34.37.23.71v.97l-.09.83-.09.44-.07.21-.05.32-.21.53-.16.51-.14.23-.14.32-.21.37-.14.23-.18.3-.28.34-.23.23-.37.44-.48.46-.23.18-.25.18-.23.11-.14.11-.44.28-.18.07-.46.23-.46.16-.34.07-.32.11-.18.05-.21.02-.34.09h-.39l-.21.07-.44.02h-.44l-.28.05-.51-.02Z"/>
          <path class="cls-1" d="m81.78,29.44l-.3-.07-.41-.21-.32-.25-.23-.28-.09-.28v-.41l.21-.41.14-.34.11-.25.14-.28.21-.48.14-.37.44-.87.23-.51.21-.53.37-.71.23-.53.16-.32.16-.34.18-.39.32-.83.28-.48.18-.51.32-.69.37-.85.21-.46.34-.87.25-.53.11-.34.21-.39.16-.32.05-.18.09-.23.11-.32.16-.23.14-.28.14-.25.09-.18.16-.28.28-.23.57-.11h.62l.3.07.25.23.16.3.14.28.23.53.23.51.44.85.14.37.16.3.14.41.18.41.11.32.16.32.25.57.25.51.16.41.16.28.09.25.16.34.21.37.14.37.14.39.14.23.11.3.23.41.18.46.3.71.41.78.23.55.16.34.09.21.09.3.28.55.21.44.11.18.21.44.16.48.11.39-.09.51-.25.3-.46.23-.8.21-.53-.11-.21-.18-.23-.23-.07-.3-.21-.44-.25-.53-.14-.25-.21-.46-.25-.53-.09-.21-.16-.28-.21-.37-.16-.3-.23-.16-.46-.05-.57.02h-2.69l-.76-.02-.6.05-.32-.02-.39.05-.37.02-.3.16-.14.21-.46.92-.23.41-.07.25-.11.23-.14.32-.18.39-.11.34-.23.37-.28.41-.25.21-.37.09-.39-.02Zm8.16-6.99l.02-.02.07-.02.09-.21-.07-.41-.14-.34-.51-.9-.23-.44-.3-.74-.18-.44-.16-.41-.25-.6-.28-.23-.18.37-.18.57-.39.87-.3.62-.21.57-.18.41-.23.46-.02.18-.05.21v.23l.16.16.39.02h.41l.64.05,1.54.05.53-.02Z"/>
          <path class="cls-1" d="m105.03,29.24l-.57-.02-.44.02h-.3l-.37-.05-.97.02-.25.02-.51-.02-.8.05-.51-.07-.23-.05-.21-.14-.25-.39-.07-.67-.02-.74.05-.78v-.53l-.05-.62-.05-.78v-1.56l.02-.76-.02-.51-.02-.69v-.67l.02-.44-.02-.64v-.39l-.02-.74.02-.55v-.3l.02-.44v-.6l.05-.48v-.97l-.02-.51.05-.34.14-.44.39-.34.51-.11.48.02.32.02.92-.02h.57l.55.02.28-.02h.87l.28.05.39.02.71-.02.37-.05h1.52l1.06.11.6.16.3.09,1.03.51.28.23.25.25.23.25.25.44.32.71.23.71.07.37v.9l-.02.34-.18.69-.23.67-.25.39-.34.46-.18.34.09.14.39.25.32.34.32.51.25.6.25.69.11.48.09.44.02.41-.02.62-.18.69-.09.39-.18.41-.23.51-.28.28-.23.37-.46.39-.62.34-.48.21-.34.09-.6.18-.6.09-.3.07-.34.02-.23.02-.39.05-.41-.02-.6.02h-.6l-.9-.05Zm.67-9.7l.99.02h.37l.46-.05.78-.11.41-.16.44-.34.23-.3.21-.34.07-.48v-.57l-.11-.37-.11-.3-.21-.28-.51-.3-.55-.21h-.39l-.28-.02-1.17.02-.9-.02h-.57l-.44-.05-.64-.02-.74.05-.41.07-.18.07-.09.18v.37l-.02.34-.09.46.02.55v.57l.07.41v.32l.07.21.09.14.21.07.18.02.46.02h.51l.48.02.71.02.67-.02Zm.87,7.08l.55-.02.6-.07h.39l.44-.05.39-.02.37-.11.23-.14.3-.28.23-.37.09-.18.11-.25.05-.39.05-.46-.05-.37-.11-.37-.21-.44-.23-.28-.18-.16-.18-.11-.11-.07-.25-.09-.69-.11-.85-.02-.62-.02-.28.02h-1.03l-.3-.02-.34.02h-.46l-1.7.02-.32.09-.09.23.02.39.05.34v.44l-.05.69-.05.87v.51l.09.62.18.09.11.05.48.02h.85l.71.02.55-.02.6.05.67-.05Z"/>
          <path class="cls-1" d="m117.79,29.1l-.3-.16-.16-.32-.11-.41-.02-.48.02-.51-.02-.46.05-.34-.02-.6v-2.09l-.05-.25-.02-.51v-1.43l.02-.64v-.44l.05-.51.02-.51.05-.6-.05-.6.05-.48v-1.06l-.05-.32v-.67l-.02-.57v-1.26l.09-.37.07-.16.11-.16.16-.09.28-.07.3-.02.3.05h.44l.37-.02.25.09.14.14.11.21.05.16.02.37.02.46v.34l.05.51v.37l-.05.46-.02.39v1.45l.02.51.05.44.02.41.02.69.02.51-.02.16.02.25.02.44-.02.44v.21l-.02.21.02.16-.05.46v.41l-.02.78-.07.51v.53l.02.39.07.55v.18l.02.21.14.18.11.05h1.01l.51.02.21-.02.23.02.37.02.46.02h.48l.37-.07.44-.02h.41l.34.02h.46l.28.05h.41l.55-.07h.55l.34.02h.32l.3.07.25.16.25.3.05.16v1.03l-.05.23-.07.16-.18.16-.39.21-.32.05-.39-.02h-1.2l-.39.07-.3-.02h-1.31l-.34-.02-1.36.05h-4.44l-.34-.11Z"/>
          <path class="cls-1" d="m141.64,29.21l-.16-.02-.21.02-.53-.05-.46.02-.3-.02-.64.02h-.48l-.44-.02h-.37l-.32.05-.37-.02-.11.02-.51-.05h-.69l-.76-.02-.83.02h-.74l-.37-.02-.37-.21-.28-.46-.05-.55v-1.63l-.02-.71.02-.53v-.71l-.02-.44-.02-.48-.02-.23v-.32l.02-.34v-.55l-.02-.07.02-.21-.02-.28v-.21l-.02-.55.02-.97.02-.64v-.39l-.02-.67v-1.49l-.05-.39.02-.3v-.28l.02-.44v-.25l.02-.44.02-.62.09-.3.16-.25.25-.16.18-.09.25-.05h.67l.97.05h1.52l.64-.02.48-.02.71-.02h1.49l.51.07h.51l.37-.05.64.02.37.02.92-.05.25.02.34-.02.37.05.34.14.18.28.14.46.05.48-.02.3-.14.41-.25.32-.25.09-.53.05-.83.02-.48.02-.21-.02-.74.05h-1.08l-.87-.02-.53-.02h-.23l-.46.05-1.22.02h-.41l-.51.02h-.44l-.41.11-.07.37-.02.39-.05.16v.39l-.02.53.05.57-.02.6.11.53.28.16h.18l.51.07.6-.05h.39l.48.05.51-.05,1.75-.02h1.26l.34.02.39.11.28.28.09.25.05.23.02.18.05.53-.07.48-.16.28-.46.23h-1.22l-1.33.07-.74-.02h-.25l-.94-.02-.28.02-.41-.02-.55.02-.28.05-.3.09-.16.14-.02.32-.02.34-.05.39v.51l.02.34v.44l-.02.37v.62l.21.6.64.28h1.61l.64-.02.64.02,1.31-.02.48-.05h1.38l.28.05h.44l.71.02.57.05h.3l.18.05.21.14.14.21.07.41-.02.48v.28l-.05.25-.09.28-.14.18-.16.09-.23.07-1.15.11-.6.07h-.64l-.46-.02Z"/>
          <path class="cls-1" d="m163.33,29.65l-.44.02-.53-.02-.44-.09-1.08-.18-.3-.11-.74-.25-.23-.11-.25-.14-.23-.11-.14-.11-.32-.16-.28-.21-.28-.16-.25-.25-.11-.09-.25-.23-.25-.28-.32-.34-.28-.37-.16-.18-.18-.23-.16-.25-.23-.39-.21-.41-.14-.3-.16-.39-.21-.41-.07-.3-.11-.32-.02-.3-.07-.23-.02-.39-.07-.34-.02-.53-.02-.39v-.69l.11-.41.05-.25.14-.55.18-.71.23-.53.14-.37.14-.28.21-.34.07-.18.05-.07.18-.25.32-.41.34-.44.32-.37.3-.3.46-.37.57-.39.46-.32.69-.37.39-.16.34-.11.37-.11.3-.07.64-.16.37-.07.21-.02.46-.02.48-.05h.51l.51.07.18.05.46.05.48.14.67.21.62.23.16.09.41.23.53.25.48.37.44.32.32.25.37.34.32.39.28.41.11.3-.02.37-.21.37-.23.3-.37.37-.3.16-.39.05-.34-.07-.28-.21-.37-.37-.37-.32-.28-.32-.37-.28-.25-.18-.41-.21-.39-.21-.39-.09-.57-.16-.41-.09h-.51l-.55-.07-.6.09-.41.07-.44.11-.44.14-.48.23-.57.32-.3.18-.23.21-.34.3-.28.28-.25.32-.37.48-.34.74-.3.76-.07.37-.05.32-.05.48v.53l.09.57.07.6.11.39.07.39.14.39.14.18.11.25.09.25.05.09.18.21.28.41.23.28.21.21.32.25.37.32.28.16.48.25.46.23.32.09.44.09.67.11.41.02.78-.05.64-.09.51-.11.48-.16.34-.14.37-.21.46-.32.41-.32.67-.67.23-.25.34-.16.44-.05.69.25.57.62.14.37-.02.28-.11.39-.25.41-.28.28-.39.41-1.1.76-.39.21-.18.14-1.26.57-.3.07-.34.09-.3.07-.32.09-.67.05-.48.07-.46-.05Z"/>
          <path class="cls-1" d="m174.83,29.14l-.48-.21-.16-.25-.09-.32-.02-.46.02-.37-.02-.48v-.62l-.02-.34.02-.37-.02-.67v-.39l.07-.83v-1.01l-.02-.34-.02-.23v-.53l.02-.55v-.64l-.02-.37v-.62l-.02-.57v-1.66l-.02-.83v-.46l.02-.51-.02-.55v-.62l.05-.69.16-.28.11-.11.34-.23.57-.07h.41l.32.07.25.07.16.14.14.21.07.18.05.28.05.37v.64l.02.71v.48l-.02.44v1.03l.02.41.02.44v.28l-.02.23.05.28.05.14.18.09.41.02.67.02h.41l.83.02.57-.02h1.82l.67-.02.46.02.67-.02.57.02.39-.05.23-.07.09-.18.09-.3.05-.39v-1.06l-.02-.67.02-.34v-2.28l.07-.41.07-.23.11-.18.3-.25.44-.09.39.02h.46l.39.11.32.28.11.48.05.32.05.44-.05.48v.6l.02.69.02.78-.02.67-.02.71v.46l.02.62-.05.37.02.44-.02.62.02.78.05.74-.05.62.02.55v.34l-.02.3-.02.51.05.44.02.3v.34l-.02.32.02.39-.05.34.02.25v.32l-.05.51-.09.51-.28.37-.34.14-.62.07-.64-.05-.23-.09-.3-.23-.14-.34-.05-.32.02-.8v-4.28l-.02-.6-.18-.28-.37-.05-1.15-.05-.6.02-.87-.07-.9.02-.8-.02-.55.05h-.41l-.69.02h-.62l-.39.02-.16.05-.37.32-.09.55v2.05l-.02.32-.02.37.05.41.02.62v.48l.02.34-.02.44-.05.41-.16.23-.21.16-.44.18-.41.09h-.28l-.44-.07Z"/>
          <path class="cls-1" d="m192.77,29.44l-.3-.07-.41-.21-.32-.25-.23-.28-.09-.28v-.41l.21-.41.14-.34.11-.25.14-.28.21-.48.14-.37.44-.87.23-.51.21-.53.37-.71.23-.53.16-.32.16-.34.18-.39.32-.83.28-.48.18-.51.32-.69.37-.85.21-.46.34-.87.25-.53.11-.34.21-.39.16-.32.05-.18.09-.23.11-.32.16-.23.14-.28.14-.25.09-.18.16-.28.28-.23.57-.11h.62l.3.07.25.23.16.3.14.28.23.53.23.51.44.85.14.37.16.3.14.41.18.41.11.32.16.32.25.57.25.51.16.41.16.28.09.25.16.34.21.37.14.37.14.39.14.23.11.3.23.41.18.46.3.71.41.78.23.55.16.34.09.21.09.3.28.55.21.44.11.18.21.44.16.48.11.39-.09.51-.25.3-.46.23-.8.21-.53-.11-.21-.18-.23-.23-.07-.3-.21-.44-.25-.53-.14-.25-.21-.46-.25-.53-.09-.21-.16-.28-.21-.37-.16-.3-.23-.16-.46-.05-.57.02h-2.69l-.76-.02-.6.05-.32-.02-.39.05-.37.02-.3.16-.14.21-.46.92-.23.41-.07.25-.11.23-.14.32-.18.39-.11.34-.23.37-.28.41-.25.21-.37.09-.39-.02Zm8.16-6.99l.02-.02.07-.02.09-.21-.07-.41-.14-.34-.51-.9-.23-.44-.3-.74-.18-.44-.16-.41-.25-.6-.28-.23-.18.37-.18.57-.39.87-.3.62-.21.57-.18.41-.23.46-.02.18-.05.21v.23l.16.16.39.02h.41l.64.05,1.54.05.53-.02Z"/>
          <path class="cls-1" d="m222.05,29.37l-.23-.14-.18-.16-.25-.28-.28-.39-.18-.23-.18-.25-.18-.28-.21-.3-.14-.23-.18-.23-.25-.37-.37-.41-.25-.32-.21-.3-.3-.37-.34-.41-.28-.39-.37-.44-.23-.32-.14-.18-.16-.11-.23-.16-.23-.11-.25-.05-.3-.05-.21.02-1.43-.05-.55.05-.46.16-.11.37-.05.62-.05.53-.02.28-.02.6v.46l.02.64-.02.18v.44l-.02.39v.48l-.05.32-.05.37-.11.23-.11.14-.14.07-.23.07h-.28l-.41.05-.51-.05-.25-.05-.23-.09-.21-.37-.11-.32v-.55l-.02-.55-.02-.23.07-.9v-.55l-.02-.46-.05-.37v-1.56l.02-.44.02-.28-.02-.18v-1.06l.02-.44v-.9l-.02-.48v-.32l.05-.23-.05-.28v-.46l-.02-.16.02-.14.02-.23v-.41l-.02-.09.05-.34v-1.1l-.05-.23.05-.23-.07-.44v-.41l.02-.46.09-.39.14-.21.14-.11.25-.14.67-.09,1.01.05.8-.02.53-.02h.37l.25.02.39-.02.53-.02,1.17.02h.3l.44-.02h1.06l.53.02,1.24.11.28.07.41.14.53.23.57.34.32.32.18.21.34.37.21.39.11.37.16.39.11.32.09.18.05.21.05.18-.02.28.02.3.02.55.02.71-.02.34-.05.18-.07.25-.09.25-.16.46-.23.53-.14.21-.14.23-.25.28-.23.21-.23.25-.39.25-.28.14-.39.28-.48.21-.14.14.02.11.02.09.14.23.25.41.32.39.23.28.11.21.18.21.69.99.25.32.28.37.23.28.18.3.25.32.16.41-.05.16-.09.3-.28.46-.32.21-.39.28-.51.21-.23-.05Zm-3.1-9.08l.21-.02.25-.02.18-.02.23.02.21-.09.16-.07.21-.07.14-.11.16-.16.14-.18.18-.48.09-.48.05-.21.02-.34.05-.28-.05-.34-.11-.41-.11-.37-.28-.44-.39-.25-.32-.09-.44-.14-.44-.02-.34-.02-.21-.02h-.21l-.25-.02-.28.05h-1.54l-.32-.02h-.37l-.41.02-.34-.07h-.71l-.55.07-.14.05-.07.16-.02.3-.02.6v.74l-.02.53.02.74-.02.69.07.41.34.21.3.07.3.02.41-.05.25.05.51.02h.48l.14.02.51-.02h.62l.97.09h.78Z"/>
          <path class="cls-1" d="m228.28,29.44l-.3-.07-.41-.21-.32-.25-.23-.28-.09-.28v-.41l.21-.41.14-.34.11-.25.14-.28.21-.48.14-.37.44-.87.23-.51.21-.53.37-.71.23-.53.16-.32.16-.34.18-.39.32-.83.28-.48.18-.51.32-.69.37-.85.21-.46.34-.87.25-.53.11-.34.21-.39.16-.32.05-.18.09-.23.11-.32.16-.23.14-.28.14-.25.09-.18.16-.28.28-.23.57-.11h.62l.3.07.25.23.16.3.14.28.23.53.23.51.44.85.14.37.16.3.14.41.18.41.11.32.16.32.25.57.25.51.16.41.16.28.09.25.16.34.21.37.14.37.14.39.14.23.11.3.23.41.18.46.3.71.41.78.23.55.16.34.09.21.09.3.28.55.21.44.11.18.21.44.16.48.11.39-.09.51-.25.3-.46.23-.8.21-.53-.11-.21-.18-.23-.23-.07-.3-.21-.44-.25-.53-.14-.25-.21-.46-.25-.53-.09-.21-.16-.28-.21-.37-.16-.3-.23-.16-.46-.05-.57.02h-2.69l-.76-.02-.6.05-.32-.02-.39.05-.37.02-.3.16-.14.21-.46.92-.23.41-.07.25-.11.23-.14.32-.18.39-.11.34-.23.37-.28.41-.25.21-.37.09-.39-.02Zm8.16-6.99l.02-.02.07-.02.09-.21-.07-.41-.14-.34-.51-.9-.23-.44-.3-.74-.18-.44-.16-.41-.25-.6-.28-.23-.18.37-.18.57-.39.87-.3.62-.21.57-.18.41-.23.46-.02.18-.05.21v.23l.16.16.39.02h.41l.64.05,1.54.05.53-.02Z"/>
          <path class="cls-1" d="m253.37,29.65l-.44.02-.53-.02-.44-.09-1.08-.18-.3-.11-.74-.25-.23-.11-.25-.14-.23-.11-.14-.11-.32-.16-.28-.21-.28-.16-.25-.25-.11-.09-.25-.23-.25-.28-.32-.34-.28-.37-.16-.18-.18-.23-.16-.25-.23-.39-.21-.41-.14-.3-.16-.39-.21-.41-.07-.3-.11-.32-.02-.3-.07-.23-.02-.39-.07-.34-.02-.53-.02-.39v-.69l.11-.41.05-.25.14-.55.18-.71.23-.53.14-.37.14-.28.21-.34.07-.18.05-.07.18-.25.32-.41.34-.44.32-.37.3-.3.46-.37.57-.39.46-.32.69-.37.39-.16.34-.11.37-.11.3-.07.64-.16.37-.07.21-.02.46-.02.48-.05h.51l.51.07.18.05.46.05.48.14.67.21.62.23.16.09.41.23.53.25.48.37.44.32.32.25.37.34.32.39.28.41.11.3-.02.37-.21.37-.23.3-.37.37-.3.16-.39.05-.34-.07-.28-.21-.37-.37-.37-.32-.28-.32-.37-.28-.25-.18-.41-.21-.39-.21-.39-.09-.57-.16-.41-.09h-.51l-.55-.07-.6.09-.41.07-.44.11-.44.14-.48.23-.57.32-.3.18-.23.21-.34.3-.28.28-.25.32-.37.48-.34.74-.3.76-.07.37-.05.32-.05.48v.53l.09.57.07.6.11.39.07.39.14.39.14.18.11.25.09.25.05.09.18.21.28.41.23.28.21.21.32.25.37.32.28.16.48.25.46.23.32.09.44.09.67.11.41.02.78-.05.64-.09.51-.11.48-.16.34-.14.37-.21.46-.32.41-.32.67-.67.23-.25.34-.16.44-.05.69.25.57.62.14.37-.02.28-.11.39-.25.41-.28.28-.39.41-1.1.76-.39.21-.18.14-1.26.57-.3.07-.34.09-.3.07-.32.09-.67.05-.48.07-.46-.05Z"/>
          <path class="cls-1" d="m268.99,29.31h-.39l-.23-.05-.32-.18-.11-.14-.14-.14-.09-.44v-.48l.02-.34v-.34l.05-.44-.02-.57.02-.44v-.48l.02-.39-.02-.9v-1.61l-.05-.55v-.18l.02-.25v-.6l-.02-.62-.02-.39v-.62l.02-.74v-.48l.02-.18-.05-.23.02-.37v-.3l-.02-.18v-.25l-.05-.39-.11-.28-.09-.07-.48-.02-.55.05-.18.02-.3-.02h-.41l-1.47-.05-.48.02-.32-.07-.21-.16-.18-.21-.14-.32-.05-.55.07-.62.21-.39.28-.18.28-.09.32-.02.37-.07h.28l.18.02h1.15l.11.02h1.33l.3.02h.53l.51.02h.62l.55-.02.44-.02.46.02.55-.02.6.02,2.21.05.55.05.46.07.51.39.16.55v.3l.02.21-.07.32-.07.18-.09.14-.16.18-.44.14-.71.09-.78-.02-.6.05-1.66-.05-.37.09-.14.21-.02.48v.53l.02.44-.02.46-.02.39-.02.48-.02.55v.23l.02.28.02.25-.02.16.02.3v.51l-.05.23.05.18-.02.25.02.25-.05.25-.02.34v.32l-.02.37v.32l-.05.23.05.14-.05.34.02.62v.34l.02.21-.05.25.02.21-.02.21v.57l.02.37-.05.3v.21l.07.16.05.23.02.25-.05.28-.09.28-.14.25-.16.07-.41.18-.25.09-.46-.07Z"/>
          <path class="cls-1" d="m288.47,29.21l-.16-.02-.21.02-.53-.05-.46.02-.3-.02-.64.02h-.48l-.44-.02h-.37l-.32.05-.37-.02-.11.02-.51-.05h-.69l-.76-.02-.83.02h-.74l-.37-.02-.37-.21-.28-.46-.05-.55v-1.63l-.02-.71.02-.53v-.71l-.02-.44-.02-.48-.02-.23v-.32l.02-.34v-.55l-.02-.07.02-.21-.02-.28v-.21l-.02-.55.02-.97.02-.64v-.39l-.02-.67v-1.49l-.05-.39.02-.3v-.28l.02-.44v-.25l.02-.44.02-.62.09-.3.16-.25.25-.16.18-.09.25-.05h.67l.97.05h1.52l.64-.02.48-.02.71-.02h1.49l.51.07h.51l.37-.05.64.02.37.02.92-.05.25.02.34-.02.37.05.34.14.18.28.14.46.05.48-.02.3-.14.41-.25.32-.25.09-.53.05-.83.02-.48.02-.21-.02-.74.05h-1.08l-.87-.02-.53-.02h-.23l-.46.05-1.22.02h-.41l-.51.02h-.44l-.41.11-.07.37-.02.39-.05.16v.39l-.02.53.05.57-.02.6.11.53.28.16h.18l.51.07.6-.05h.39l.48.05.51-.05,1.75-.02h1.26l.34.02.39.11.28.28.09.25.05.23.02.18.05.53-.07.48-.16.28-.46.23h-1.22l-1.33.07-.74-.02h-.25l-.94-.02-.28.02-.41-.02-.55.02-.28.05-.3.09-.16.14-.02.32-.02.34-.05.39v.51l.02.34v.44l-.02.37v.62l.21.6.64.28h1.61l.64-.02.64.02,1.31-.02.48-.05h1.38l.28.05h.44l.71.02.57.05h.3l.18.05.21.14.14.21.07.41-.02.48v.28l-.05.25-.09.28-.14.18-.16.09-.23.07-1.15.11-.6.07h-.64l-.46-.02Z"/>
          <path class="cls-1" d="m307.44,29.37l-.23-.14-.18-.16-.25-.28-.28-.39-.18-.23-.18-.25-.18-.28-.21-.3-.14-.23-.18-.23-.25-.37-.37-.41-.25-.32-.21-.3-.3-.37-.34-.41-.28-.39-.37-.44-.23-.32-.14-.18-.16-.11-.23-.16-.23-.11-.25-.05-.3-.05-.21.02-1.43-.05-.55.05-.46.16-.11.37-.05.62-.05.53-.02.28-.02.6v.46l.02.64-.02.18v.44l-.02.39v.48l-.05.32-.05.37-.11.23-.11.14-.14.07-.23.07h-.28l-.41.05-.51-.05-.25-.05-.23-.09-.21-.37-.11-.32v-.55l-.02-.55-.02-.23.07-.9v-.55l-.02-.46-.05-.37v-1.56l.02-.44.02-.28-.02-.18v-1.06l.02-.44v-.9l-.02-.48v-.32l.05-.23-.05-.28v-.46l-.02-.16.02-.14.02-.23v-.41l-.02-.09.05-.34v-1.1l-.05-.23.05-.23-.07-.44v-.41l.02-.46.09-.39.14-.21.14-.11.25-.14.67-.09,1.01.05.8-.02.53-.02h.37l.25.02.39-.02.53-.02,1.17.02h.3l.44-.02h1.06l.53.02,1.24.11.28.07.41.14.53.23.57.34.32.32.18.21.34.37.21.39.11.37.16.39.11.32.09.18.05.21.05.18-.02.28.02.3.02.55.02.71-.02.34-.05.18-.07.25-.09.25-.16.46-.23.53-.14.21-.14.23-.25.28-.23.21-.23.25-.39.25-.28.14-.39.28-.48.21-.14.14.02.11.02.09.14.23.25.41.32.39.23.28.11.21.18.21.69.99.25.32.28.37.23.28.18.3.25.32.16.41-.05.16-.09.3-.28.46-.32.21-.39.28-.51.21-.23-.05Zm-3.1-9.08l.21-.02.25-.02.18-.02.23.02.21-.09.16-.07.21-.07.14-.11.16-.16.14-.18.18-.48.09-.48.05-.21.02-.34.05-.28-.05-.34-.11-.41-.11-.37-.28-.44-.39-.25-.32-.09-.44-.14-.44-.02-.34-.02-.21-.02h-.21l-.25-.02-.28.05h-1.54l-.32-.02h-.37l-.41.02-.34-.07h-.71l-.55.07-.14.05-.07.16-.02.3-.02.6v.74l-.02.53.02.74-.02.69.07.41.34.21.3.07.3.02.41-.05.25.05.51.02h.48l.14.02.51-.02h.62l.97.09h.78Z"/>
        </g>
      </g>
      <g>
        <rect class="cls-1" y="55" width="563" height="217.91"/>
        <g>
          <g>
            <path class="cls-3" d="m468.99,171.28c-2.45-1.32-3.38-4.39-2.07-6.84l8.71-16.23c1.31-2.45,4.39-3.38,6.84-2.06l40.73,21.87c2.45,1.32,3.38,4.39,2.06,6.84l-8.71,16.23c-1.31,2.45-4.39,3.38-6.84,2.06l-40.73-21.86Z"/>
            <path class="cls-3" d="m68.41,105.15c.51,2.73,3.15,4.55,5.88,4.05l74.35-13.7c2.73-.5,4.56-3.15,4.05-5.89l-.11-.57c-.5-2.73-3.15-4.56-5.88-4.06l-74.35,13.7c-2.73.5-4.56,3.15-4.05,5.88l.1.58Zm236.37,23.12h-45.79c.02-.2.05-.4.05-.59v-13.94c0-2.78-2.27-5.05-5.05-5.05h-18.41c-2.78,0-5.05,2.27-5.05,5.05v13.94c0,.2-.01.4.01.59l-101.62.02v-14.55c0-2.78-2.26-5.05-5.04-5.05h-25.54c-2.78,0-5.06,2.27-5.06,5.05v14.55h-51.09c-2.78,0-5.05,2.28-5.05,5.06v.58c0,2.78,2.27,5.05,5.05,5.05h51.08s-.01,4.13-.01,10.69h-8.73c-2.78,0-5.05,2.28-5.05,5.06v.59c0,2.78,2.27,5.05,5.05,5.05h8.73c0,3.59,0,7.51,0,11.58h-8.88c-2.78.01-5.05,2.28-5.05,5.06v.59c0,2.78,2.27,5.05,5.05,5.05h8.88c0,3.86,0,7.73,0,11.59h-22.71v-35.95c.01-2.78-2.26-5.05-5.04-5.05h-.59c-2.78,0-5.05,2.27-5.05,4.94v41.72c0,2.89,2.26,5.04,5.04,5.04h28.35c0,3.08,0,6.07,0,8.89h-18.98c-2.78.01-5.05,2.28-5.05,5.06v.59c0,2.78,2.27,5.05,5.05,5.05h18.98c0,5.46-.01,9.6,0,11.55l-33.23.04c-2.78,0-5.05,2.27-5.05,5.05v.58c0,2.78,2.27,5.05,5.05,5.05h102.19c2.78,0,5.05-2.28,5.05-5.05v-.58c0-2.78-2.27-5.05-5.05-5.05l-33.31-.04v-11.56s19.05,0,19.05,0c2.78,0,5.05-2.27,5.05-5.05v-.59c0-2.78-2.27-5.05-5.05-5.05,0,0-19.04-.01-19.04-.01v-8.89h28.4c2.78,0,5.05-2.41,5.05-5.19v-44.06c0-.24-.02-.6-.06-.83,0-2.78-2.28-5.18-5.06-5.18h-28.33s0-10.7,0-10.7l129.92-.03c-1.56,1.97-2.46,4.44-2.46,7.15,0,6.4,5.19,11.59,11.59,11.59s11.59-5.19,11.59-11.59c0-2.7-.94-5.17-2.49-7.14h27.73c2.78,0,5.05-2.26,5.05-5.04v-.58c0-2.78-2.27-5.05-5.05-5.05Zm-153.14,65.96h-22.75v-11.59h22.75v11.59Zm.01-33.87l-.02,11.59s-22.74,0-22.74,0c0,0,0-11.59,0-11.59h22.76Z"/>
            <path class="cls-3" d="m286.89,246.82c2.78,0,5.06-2.25,5.06-5.03l.13-54.97c0-2.78-2.26-5.08-5.04-5.08h-16.62s-46.95.01-46.95.01c-2.78,0-5.05,2.27-5.05,5.05v.59c0,2.78,2.27,5.05,5.05,5.05h40.02s0,15.75,0,15.75h-40.02c-2.78,0-5.05,2.27-5.05,5.05v.59c0,2.78,2.27,5.05,5.05,5.05h40.02s0,17.22,0,17.22h-53.98v-43.5c0-2.78-2.27-5.05-5.05-5.05h-.6c-2.78,0-5.05,2.27-5.05,5.05v49.15c0,2.78,2.27,5.05,5.05,5.05h.8s82.23,0,82.23,0Z"/>
            <path class="cls-3" d="m333.19,116.99h85.83c2.79,0,5.05,2.26,5.05,5.05v.59c0,2.79-2.26,5.05-5.05,5.05h-85.83c-2.79,0-5.05-2.26-5.05-5.05v-.59c0-2.79,2.26-5.05,5.05-5.05Z"/>
            <path class="cls-3" d="m363.08,170.19l-178.31-.04c-2.78,0-5.05-2.27-5.05-5.05v-.59c0-2.78,2.27-5.05,5.05-5.05h34.9c-.19-.26-.34-.55-.47-.87l-4.19-10.25c-1.05-2.57.19-5.54,2.76-6.59l.55-.22c2.57-1.05,5.54.19,6.59,2.76l4.2,10.26c.69,1.7.33,3.56-.69,4.93h224.05l-.02-59.22c.03-2.78,3.37-5.03,6.14-5h.59c2.78.03,6.07,2.33,6.04,5.11l.08,140.81c-.03,2.78-3.37,5.03-6.14,5h-.59c-2.78-.03-6.07-2.33-6.04-5.11l-.05-70.9c-14.16,0-58.96,0-77.95,0l11.83,6.64c2.42,1.36,3.29,4.46,1.93,6.88l-29.16,51.94c-1.36,2.42-4.46,3.29-6.88,1.93l-16.06-9.01c-2.43-1.36-3.29-4.46-1.94-6.88l28.86-51.48"/>
          </g>
          <g>
            <path class="cls-3" d="m271.62,97.84l-6.73-8.05c-.17.15-.32.3-.44.41h0c0,2.89,0,6.42,0,6.83h0s0,.02,0,.03h0s0,0,0,0h0c0,.75-.63,1.35-1.4,1.35h-.84c-.76,0-1.39-.6-1.4-1.35h0v-17.43c0-.75.63-1.35,1.4-1.35h.84c.76,0,1.39.6,1.4,1.35h0v6.15c.16-.17.31-.33.46-.47h0l6.61-6.53c.61-.63,1.16-.89,2.16-.88h1.91c.42,0,.81.16.82.56h0c0,.23-.13.42-.33.62h0l-7.92,7.65c-.19.18-.43.41-.68.65h0l8.75,10.18c.17.2.27.4.27.61h0c0,.41-.41.62-.86.62h-1.96c-1,0-1.65-.37-2.06-.96h0Z"/>
            <g>
              <path class="cls-3" d="m297.57,97.55l-9.17-18.99h0c-.44-.94-1.18-.95-1.64,0l-9.17,18.99c-.34.68-.1,1.03.68,1.03h1.09c.94,0,1.3-.24,1.57-.81l1.97-4.16h9.34l1.97,4.16c.27.57.63.81,1.57.81h1.09c.78,0,1.02-.35.68-1.03Zm-13.32-6.84l2.88-6.49c.27-.57.57-.57.82,0l2.73,6.48h-6.44Z"/>
              <path class="cls-2" d="m297.57,97.55l-9.17-18.99h0c-.44-.94-1.18-.95-1.64,0l-9.17,18.99c-.34.68-.1,1.03.68,1.03h1.09c.94,0,1.3-.24,1.57-.81l1.97-4.16h9.34l1.97,4.16c.27.57.63.81,1.57.81h1.09c.78,0,1.02-.35.68-1.03Zm-13.32-6.84l2.88-6.49c.27-.57.57-.57.82,0l2.73,6.48h-6.44Z"/>
            </g>
            <g>
              <path class="cls-3" d="m331.85,97.55l-9.17-18.99h0c-.44-.94-1.18-.95-1.64,0l-9.17,18.99c-.34.68-.1,1.03.68,1.03h1.09c.94,0,1.3-.24,1.57-.81l1.97-4.16h9.34l1.97,4.16c.27.57.63.81,1.57.81h1.09c.78,0,1.02-.35.68-1.03Zm-13.32-6.84l2.88-6.49c.27-.57.56-.57.82,0l2.74,6.48h-6.44Z"/>
              <path class="cls-2" d="m331.85,97.55l-9.17-18.99h0c-.44-.94-1.18-.95-1.64,0l-9.17,18.99c-.34.68-.1,1.03.68,1.03h1.09c.94,0,1.3-.24,1.57-.81l1.97-4.16h9.34l1.97,4.16c.27.57.63.81,1.57.81h1.09c.78,0,1.02-.35.68-1.03Zm-13.32-6.84l2.88-6.49c.27-.57.56-.57.82,0l2.74,6.48h-6.44Z"/>
            </g>
            <path class="cls-3" d="m304.81,99.41h0c-1.77,0-3.28-.47-4.47-1.42h0c-1.13-.91-1.68-1.98-2.05-3.46h0c-.02-.07-.03-.15-.03-.24h0c-.02-.28.19-.67.71-.77h0l1.88-.38h0c.09-.02.18-.04.27-.04h0c.53.01.81.4.83.7h0c.21.89.31,1.16.57,1.46h0c.54.66,1.3.98,2.4.99h0c.86,0,1.52-.25,2.07-.73h0c.54-.49.79-1.05.8-1.8h0c0-.3-.05-.56-.14-.8h0c-.09-.23-.23-.45-.42-.65h0c-.2-.2-.46-.41-.79-.6h0c-.34-.19-.75-.38-1.22-.56h0l-1.9-.69c-2.76-1.01-4.28-2.6-4.28-4.71h0v-.02h0c0-1.4.63-2.6,1.84-3.52h0c1.2-.93,2.7-1.39,4.44-1.39h0s0,0,0,0h0s0,0-.01,0h0s.01,0,.01,0h0s0,0,0,0h0s0,0,.01,0h0c2.28,0,3.95.82,5.31,2.61h0s.19.21.19.51h0c0,.24-.14.51-.48.69h0l-1.49.79h0s-.02.01-.03.02h0s-.07.03-.11.05h0c-.09.04-.22.08-.36.08h0c-.22,0-.5-.11-.66-.38h0c-.41-.5-.65-.74-.94-.89h0c-.35-.2-.84-.31-1.47-.31h0c-.77,0-1.36.19-1.84.54h0c-.48.36-.67.73-.68,1.24h0c0,.61.53,1.2,1.91,1.7h0l1.96.71c1.63.58,2.86,1.29,3.66,2.18h0c.8.88,1.2,1.98,1.2,3.23h0s0,.01,0,.01h0c0,1.69-.66,3.12-1.93,4.21h0c-1.28,1.1-2.89,1.65-4.76,1.65h0Z"/>
            <path class="cls-3" d="m299.53,83c-.08,0-.15-.06-.18-.13h0c-.22-.49-.32-.88-.32-1.44h0s0-.02,0-.02h0c0-1.4.64-2.6,1.83-3.52h0c1.2-.93,2.69-1.39,4.44-1.39h0s.02,0,.03,0h0c2.28,0,3.95.82,5.31,2.61h0s.19.2.19.51h0c0,.23-.14.51-.48.69h0l-1.49.79h0s-.02.01-.03.02h0s-.06.03-.11.05h0c-.09.04-.22.08-.36.08h0c-.22,0-.5-.11-.66-.38h0c-.41-.5-.65-.74-.94-.89h0c-.35-.2-.84-.31-1.47-.31h0c-.77,0-1.36.19-1.84.54h0c-.32.24-.39.32-.61.62h0c-.02.07-.08.12-.15.14h0c-1.01.27-1.75.76-2.24,1.18h0c-.49.42-.72.77-.73.77h0c-.04.06-.11.09-.18.09h0s-.01,0-.02,0h0Zm9.34-1.91h0s0,0,0,0h0Z"/>
            <path class="cls-3" d="m350.69,77.9h17.16c.06,0,.11.02.15.06h0s.07.1.07.15h0v2.9c0,.06-.02.11-.07.15h0s-.09.06-.15.06h-8.29v4.48h6.86c.76,0,1.39.6,1.4,1.35h0v.63c0,.75-.63,1.35-1.4,1.35h-6.86v6.41h7.11c.76,0,1.39.6,1.4,1.35h0v.63c0,.75-.63,1.35-1.4,1.35h-9.34c-.76,0-1.39-.6-1.4-1.35h0v-15.84h-3.53v16.14c0,.66-.3,1.11-.79,1.11h0c-.31,0-.62-.16-.93-.42h0l-13.65-12.83v11.85c0,.75-.63,1.35-1.4,1.35h-.93c-.76,0-1.39-.6-1.4-1.35h0v-18.01c0-.78.32-1.37.93-1.37h0c.3,0,.61.14.95.4h0l13.51,12.79v-11.99c0-.75.63-1.35,1.4-1.35h.6"/>
            <g>
              <path class="cls-3" d="m427.99,78.12h-52.6c-.65,0-1.18.51-1.18,1.14v.61c0,.63.53,1.14,1.18,1.14h3.68v16.44c0,.63.53,1.14,1.18,1.14h.85c.65,0,1.18-.51,1.18-1.14v-16.44h7.71v16.44c0,.63.53,1.14,1.18,1.14h9.34c.65,0,1.18-.51,1.18-1.14v-.63c0-.63-.53-1.14-1.18-1.14h-7.32v-6.84h7.08c.65,0,1.18-.51,1.18-1.14v-.63c0-.63-.53-1.14-1.18-1.14h-7.08v-4.92l14.22-.02v16.44c0,.63.53,1.14,1.18,1.14h.85c.65,0,1.18-.51,1.18-1.14v-16.44h9.84c-2.09,1.91-3.4,4.61-3.4,7.6,0,5.79,4.89,10.49,10.93,10.49s10.93-4.69,10.93-10.49-4.89-10.49-10.93-10.49Zm0,18.01c-4.25,0-7.68-3.37-7.69-7.52,0-4.15,3.44-7.52,7.69-7.52s7.68,3.37,7.69,7.52c0,4.15-3.44,7.52-7.69,7.52Z"/>
              <path class="cls-2" d="m427.99,78.12h-52.6c-.65,0-1.18.51-1.18,1.14v.61c0,.63.53,1.14,1.18,1.14h3.68v16.44c0,.63.53,1.14,1.18,1.14h.85c.65,0,1.18-.51,1.18-1.14v-16.44h7.71v16.44c0,.63.53,1.14,1.18,1.14h9.34c.65,0,1.18-.51,1.18-1.14v-.63c0-.63-.53-1.14-1.18-1.14h-7.32v-6.84h7.08c.65,0,1.18-.51,1.18-1.14v-.63c0-.63-.53-1.14-1.18-1.14h-7.08v-4.92l14.22-.02v16.44c0,.63.53,1.14,1.18,1.14h.85c.65,0,1.18-.51,1.18-1.14v-16.44h9.84c-2.09,1.91-3.4,4.61-3.4,7.6,0,5.79,4.89,10.49,10.93,10.49s10.93-4.69,10.93-10.49-4.89-10.49-10.93-10.49Zm0,18.01c-4.25,0-7.68-3.37-7.69-7.52,0-4.15,3.44-7.52,7.69-7.52s7.68,3.37,7.69,7.52c0,4.15-3.44,7.52-7.69,7.52Z"/>
            </g>
          </g>
        </g>
      </g>
      <g>
        <rect class="cls-1" x="203" y="282.91" width="360" height="70"/>
        <g>
          <path class="cls-4" d="m243.29,332.34h-.65l-.57-.04-.76-.11h-.96l-.69-.15-.38-.11-.5-.11-.69-.27-.92-.34-.76-.42-.38-.19-.42-.27-.5-.27-.34-.27-.38-.23-.54-.5-.65-.57-.42-.42-1.38-1.64-.54-1.03-.46-.84-.5-.88-.23-.84-.19-.5-.19-.92-.15-.76-.04-.46-.11-.65-.04-.54.04-.65v-1.11l.11-.73.08-.69.31-.96.11-.61.31-.88.38-.99.34-.54.38-.84.73-1.15.65-.88.38-.34.27-.34.38-.42.38-.38.31-.15.42-.42,1.03-.57.92-.46,1.07-.5.8-.23.5-.23,1.03-.34.96-.15.61-.11.92.04,1.34-.04.92.08h.42l.69.11.76.19.5.11.34.15.57.19.54.19.54.27.61.34.8.42,1.07.69.8.65.8.76.96,1.15.61.73.27.38.23.46.27.38.34.69.38.88.23.76.19.61.08.34.15.5.19.96.08.61v.54l.04.61-.08.65-.08.99-.08.61-.04.61-.11.76-.11.46-.15.65-.34.92-.31.84-.34.73-.27.46-.19.38-.31.38-.27.34-.23.34-.15.27-.23.27-.42.42-.5.38-.34.34-.27.23-.34.27-.31.27-.38.23-.27.23-.46.31-.76.42-.84.5-.65.27-.42.15-.8.27-.96.27-.8.11h-1.11l-.88-.08Zm1.3-4.43l.5-.04.23-.04.19-.11.15-.08.5-.08.5-.23.46-.15.73-.38.76-.5.99-.73.57-.61.19-.23.31-.46.57-.73.76-1.15.23-.84.15-.73.11-.84.08-1.03.08-.54-.08-.99-.27-1.38-.27-.88-.38-.8-.19-.65-.23-.42-.31-.61-.46-.57-.27-.34-.42-.42-1.3-1.03-1.22-.73-.73-.31-.8-.23-.31-.08-.5-.15-.65-.15h-2.1l-.57.11-.69.08-.88.27-1.26.54-2.14,1.22-.38.42-.31.38-.23.19-.46.65-.34.65-.19.27-.15.42-.27.5-.23.61-.19.61-.08.54-.19.84-.08.96.04.46.04.54.08.61v.57l.04.19.11.42.15.69.11.57.46.84.92,1.38.73.92.27.31.61.54.76.5.27.15.15.08.69.38.8.38.65.19,1.07.19,1.07.15.92.04,1.11-.11Z"/>
          <path class="cls-4" d="m264.77,331.88l-.69-.27-.23-.31-.19-.5.04-.88-.04-1.3.04-1.18v-3.33l-.08-.8.04-.73-.04-.54.04-.96v-2.06l.08-1.49-.11-1.03.08-1.07-.04-1.18.04-1.34v-1.26l-.04-.76.08-.54-.04-.57v-2.1l-.04-.61.04-.46.11-.5.19-.46.46-.42.5-.15h.96l1.61.04.5-.04.88.04.96-.04.8-.08.84.04h.69l.54-.08.88.04.84-.04h.65l2.18-.08h.57l.23-.04,2.37.08h.76l1.22.08.57.11.46.23.31.27.23.38.15.76v.92l-.08.73-.23.5-.42.23-.76.11h-3.17l-.96-.04h-.96l-2.41.04-.84.08h-1.15l-.42.04h-2.83l-1.18.08-.5.19-.11.92.04,1.11-.04.46v1.76l.04.73.15.76.23.38.23.15.8.08.99.04.57-.04,1.99.08.65-.04h.57l.46-.08h3.25l.8.11.31.11.34.27.42.61.19.8v.76l-.31,1.03-.46.42-.88.23h-.99l-.73.04-3.06.08-1.07.04-.65-.04-.54.04-.5-.04-.65.08-.76.04-.61.11-.42.19-.31.5-.08.42v1.34l.08.73v.73l.04.42.04.92.04,1.26-.08,1.18v1.91l-.08.42-.15.5-.42.38-.46.23-.84.11-.76.04-.76-.04Z"/>
          <path class="cls-4" d="m291.64,331.88l-.69-.27-.23-.31-.19-.5.04-.88-.04-1.3.04-1.18v-3.33l-.08-.8.04-.73-.04-.54.04-.96v-2.06l.08-1.49-.11-1.03.08-1.07-.04-1.18.04-1.34v-1.26l-.04-.76.08-.54-.04-.57v-2.1l-.04-.61.04-.46.11-.5.19-.46.46-.42.5-.15h.96l1.61.04.5-.04.88.04.96-.04.8-.08.84.04h.69l.54-.08.88.04.84-.04h.65l2.18-.08h.57l.23-.04,2.37.08h.76l1.22.08.57.11.46.23.31.27.23.38.15.76v.92l-.08.73-.23.5-.42.23-.76.11h-3.17l-.96-.04h-.96l-2.41.04-.84.08h-1.15l-.42.04h-2.83l-1.18.08-.5.19-.11.92.04,1.11-.04.46v1.76l.04.73.15.76.23.38.23.15.8.08.99.04.57-.04,1.99.08.65-.04h.57l.46-.08h3.25l.8.11.31.11.34.27.42.61.19.8v.76l-.31,1.03-.46.42-.88.23h-.99l-.73.04-3.06.08-1.07.04-.65-.04-.54.04-.5-.04-.65.08-.76.04-.61.11-.42.19-.31.5-.08.42v1.34l.08.73v.73l.04.42.04.92.04,1.26-.08,1.18v1.91l-.08.42-.15.5-.42.38-.46.23-.84.11-.76.04-.76-.04Z"/>
          <path class="cls-4" d="m318.96,331.76l-.73-.19-.54-.54-.15-.54.04-.88v-1.53l.04-.92-.08-.61.04-.88-.08-.96.04-.5.04-.42-.11-.65v-1.18l.08-.92-.08-.76.11-.69-.04-.46v-.69l-.11-.69.04-.46v-.61l-.11-1.07-.04-.65.11-1.15v-1.11l.04-1.03-.04-.76v-3.67l-.04-.76.15-.61.19-.34.23-.23.5-.34.73-.08h.69l.8.04.61.19.31.34.31.5.04.69.04.96v.65l-.04.42.08.65-.04.96v.92l.08.65-.04.96-.04,1.18v.76l.04.54v.96l.04.84-.04,1.03.04,1.8-.08,1.07v.5l.04.34v2.14l.04.61v1.99l.08.42v1.8l-.04.88-.19,1.07-.19.42-.19.23-.27.11-.69.27h-.8l-.31.04-.5-.04Z"/>
          <path class="cls-4" d="m342.89,332.61l-.73.04-.88-.04-.73-.15-1.8-.31-.5-.19-1.22-.42-.38-.19-.42-.23-.38-.19-.23-.19-.54-.27-.46-.34-.46-.27-.42-.42-.19-.15-.42-.38-.42-.46-.54-.57-.46-.61-.27-.31-.31-.38-.27-.42-.38-.65-.34-.69-.23-.5-.27-.65-.34-.69-.11-.5-.19-.54-.04-.5-.11-.38-.04-.65-.11-.57-.04-.88-.04-.65v-1.15l.19-.69.08-.42.23-.92.31-1.18.38-.88.23-.61.23-.46.34-.57.11-.31.08-.11.31-.42.54-.69.57-.73.54-.61.5-.5.76-.61.96-.65.76-.54,1.15-.61.65-.27.57-.19.61-.19.5-.11,1.07-.27.61-.11.34-.04.76-.04.8-.08h.84l.84.11.31.08.76.08.8.23,1.11.34,1.03.38.27.15.69.38.88.42.8.61.73.54.54.42.61.57.54.65.46.69.19.5-.04.61-.34.61-.38.5-.61.61-.5.27-.65.08-.57-.11-.46-.34-.61-.61-.61-.54-.46-.54-.61-.46-.42-.31-.69-.34-.65-.34-.65-.15-.96-.27-.69-.15h-.84l-.92-.11-.99.15-.69.11-.73.19-.73.23-.8.38-.96.54-.5.31-.38.34-.57.5-.46.46-.42.54-.61.8-.57,1.22-.5,1.26-.11.61-.08.54-.08.8v.88l.15.96.11.99.19.65.11.65.23.65.23.31.19.42.15.42.08.15.31.34.46.69.38.46.34.34.54.42.61.54.46.27.8.42.76.38.54.15.73.15,1.11.19.69.04,1.3-.08,1.07-.15.84-.19.8-.27.57-.23.61-.34.76-.54.69-.54,1.11-1.11.38-.42.57-.27.73-.08,1.15.42.96,1.03.23.61-.04.46-.19.65-.42.69-.46.46-.65.69-1.83,1.26-.65.34-.31.23-2.1.96-.5.11-.57.15-.5.11-.54.15-1.11.08-.8.11-.76-.08Z"/>
          <path class="cls-4" d="m362.27,331.76l-.73-.19-.54-.54-.15-.54.04-.88v-1.53l.04-.92-.08-.61.04-.88-.08-.96.04-.5.04-.42-.11-.65v-1.18l.08-.92-.08-.76.11-.69-.04-.46v-.69l-.11-.69.04-.46v-.61l-.11-1.07-.04-.65.11-1.15v-1.11l.04-1.03-.04-.76v-3.67l-.04-.76.15-.61.19-.34.23-.23.5-.34.73-.08h.69l.8.04.61.19.31.34.31.5.04.69.04.96v.65l-.04.42.08.65-.04.96v.92l.08.65-.04.96-.04,1.18v.76l.04.54v.96l.04.84-.04,1.03.04,1.8-.08,1.07v.5l.04.34v2.14l.04.61v1.99l.08.42v1.8l-.04.88-.19,1.07-.19.42-.19.23-.27.11-.69.27h-.8l-.31.04-.5-.04Z"/>
          <path class="cls-4" d="m373.85,332.26l-.5-.11-.69-.34-.54-.42-.38-.46-.15-.46v-.69l.34-.69.23-.57.19-.42.23-.46.34-.8.23-.61.73-1.45.38-.84.34-.88.61-1.18.38-.88.27-.54.27-.57.31-.65.54-1.38.46-.8.31-.84.54-1.15.61-1.41.34-.76.57-1.45.42-.88.19-.57.34-.65.27-.54.08-.31.15-.38.19-.54.27-.38.23-.46.23-.42.15-.31.27-.46.46-.38.96-.19h1.03l.5.11.42.38.27.5.23.46.38.88.38.84.73,1.41.23.61.27.5.23.69.31.69.19.54.27.54.42.96.42.84.27.69.27.46.15.42.27.57.34.61.23.61.23.65.23.38.19.5.38.69.31.76.5,1.18.69,1.3.38.92.27.57.15.34.15.5.46.92.34.73.19.31.34.73.27.8.19.65-.15.84-.42.5-.76.38-1.34.34-.88-.19-.34-.31-.38-.38-.11-.5-.34-.73-.42-.88-.23-.42-.34-.76-.42-.88-.15-.34-.27-.46-.34-.61-.27-.5-.38-.27-.76-.08-.96.04h-4.47l-1.26-.04-.99.08-.54-.04-.65.08-.61.04-.5.27-.23.34-.76,1.53-.38.69-.11.42-.19.38-.23.54-.31.65-.19.57-.38.61-.46.69-.42.34-.61.15-.65-.04Zm13.57-11.62l.04-.04.11-.04.15-.34-.11-.69-.23-.57-.84-1.49-.38-.73-.5-1.22-.31-.73-.27-.69-.42-.99-.46-.38-.31.61-.31.96-.65,1.45-.5,1.03-.34.96-.31.69-.38.76-.04.31-.08.34v.38l.27.27.65.04h.69l1.07.08,2.56.08.88-.04Z"/>
          <path class="cls-4" d="m404.27,331.69l-.5-.27-.27-.54-.19-.69-.04-.8.04-.84-.04-.76.08-.57-.04-.99v-3.48l-.08-.42-.04-.84v-2.37l.04-1.07v-.73l.08-.84.04-.84.08-.99-.08-.99.08-.8v-1.76l-.08-.54v-1.11l-.04-.96v-2.1l.15-.61.11-.27.19-.27.27-.15.46-.11.5-.04.5.08h.73l.61-.04.42.15.23.23.19.34.08.27.04.61.04.76v.57l.08.84v.61l-.08.76-.04.65v2.41l.04.84.08.73.04.69.04,1.15.04.84-.04.27.04.42.04.73-.04.73v.34l-.04.34.04.27-.08.76v.69l-.04,1.3-.11.84v.88l.04.65.11.92v.31l.04.34.23.31.19.08h1.68l.84.04.34-.04.38.04.61.04.76.04h.8l.61-.11.73-.04h.69l.57.04h.76l.46.08h.69l.92-.11h.92l.57.04h.54l.5.11.42.27.42.5.08.27v1.72l-.08.38-.11.27-.31.27-.65.34-.54.08-.65-.04h-1.99l-.65.11-.5-.04h-2.18l-.57-.04-2.26.08h-7.38l-.57-.19Z"/>
          <path class="cls-4" d="m449.56,332.34l-.5-.08-.65-.11-1.03-.15-1.15-.38-.76-.27-1.45-.61-1.03-.57-.46-.34-.65-.46-1.07-.96-.84-.73-.46-.73-.34-.65v-.76l.34-.65.42-.54.65-.34.38-.11.38-.15h.5l.5.11.38.23.92.84.15.27.15.15,1.11.88.46.34.42.19.76.42.84.31.61.31.54.15.38.08h.31l.31-.04.34.08.23-.04.57.04.92.04.57-.15h.57l.46-.08.5-.04.42-.11.31-.15.5-.15.65-.38.84-.69.54-.65.11-.31.23-.57.08-.73-.11-.96-.65-1.03-.76-.46-.42-.19-.57-.19-.54-.15-.57-.08-.57-.15-.54-.08-.5-.11-.54-.04-.8-.15-.8-.08-.42-.11-.8-.08-1.53-.27-.54-.11-.46-.15-.76-.19-.76-.27-.54-.23-.61-.23-.84-.42-.61-.38-.15-.08-.42-.34-.5-.46-.27-.23-.23-.31-.31-.46-.19-.34-.38-.61-.38-1.49v-1.11l.08-.65.11-.88.15-.57.15-.38.19-.38.15-.34.27-.42.42-.57,1.18-1.18.38-.19.54-.38.65-.31.5-.38.42-.23.34-.15.34-.04.38-.23,1.38-.38.73-.11.88-.11.42-.08.5-.04.84-.08.76.04h.34l.27.04,1.34.11.23.08h.31l.38.08.34.08.46.08.99.38.38.23.34.15.5.31.96.42.54.5.84.65.73.76.65.92.34.65-.08,1.15-.08.23-.15.27-.31.27-.69.42-.73.27-.61-.04-.61-.27-.38-.27-.42-.42-.65-.69-.54-.46-.34-.27-.65-.34-.42-.34-.88-.38-.61-.15-1.03-.11-.69-.04-1.03.04-.92.08-.76.04-1.15.23-1.11.5-.46.27-.61.42-.76.69-.23.57-.15.46-.04.69.15.69.23.61.19.27.31.23.54.42.8.31,1.18.34.73.15.46.11.42.04.5.08.34.08.42.19h.27l.38.04h.76l.46.11.65.11.76.19.38.11.38.04.15.11.99.11,1.76.46.84.38.8.34.65.5.23.23.54.38.57.65.23.46.23.42.15.27.08.31.23.61.08.54.04.15.08.08.04.54v1.41l-.15.88-.15.61-.19.54-.19.38-.08.27-.27.46-.34.5-.31.34-.27.34-.19.19-.27.34-.34.34-.46.31-.65.42-.38.23-.27.15-.38.19-.38.15-.27.11-.54.15-.76.27-.99.23-.92.08-.57.08-.76.04h-1.49l-.92-.04Z"/>
          <path class="cls-4" d="m471,331.76l-.73-.19-.54-.54-.15-.54.04-.88v-1.53l.04-.92-.08-.61.04-.88-.08-.96.04-.5.04-.42-.11-.65v-1.18l.08-.92-.08-.76.11-.69-.04-.46v-.69l-.11-.69.04-.46v-.61l-.11-1.07-.04-.65.11-1.15v-1.11l.04-1.03-.04-.76v-3.67l-.04-.76.15-.61.19-.34.23-.23.5-.34.73-.08h.69l.8.04.61.19.31.34.31.5.04.69.04.96v.65l-.04.42.08.65-.04.96v.92l.08.65-.04.96-.04,1.18v.76l.04.54v.96l.04.84-.04,1.03.04,1.8-.08,1.07v.5l.04.34v2.14l.04.61v1.99l.08.42v1.8l-.04.88-.19,1.07-.19.42-.19.23-.27.11-.69.27h-.8l-.31.04-.5-.04Z"/>
          <path class="cls-4" d="m490.8,332.03h-.65l-.38-.08-.54-.31-.19-.23-.23-.23-.15-.73v-.8l.04-.57v-.57l.08-.73-.04-.96.04-.73v-.8l.04-.65-.04-1.49v-2.68l-.08-.92v-.31l.04-.42v-.99l-.04-1.03-.04-.65v-1.03l.04-1.22v-.8l.04-.31-.08-.38.04-.61v-.5l-.04-.31v-.42l-.08-.65-.19-.46-.15-.11-.8-.04-.92.08-.31.04-.5-.04h-.69l-2.45-.08-.8.04-.54-.11-.34-.27-.31-.34-.23-.54-.08-.92.11-1.03.34-.65.46-.31.46-.15.54-.04.61-.11h.46l.31.04h1.91l.19.04h2.22l.5.04h.88l.84.04h1.03l.92-.04.73-.04.76.04.92-.04.99.04,3.67.08.92.08.76.11.84.65.27.92v.5l.04.34-.11.54-.11.31-.15.23-.27.31-.73.23-1.18.15-1.3-.04-.99.08-2.75-.08-.61.15-.23.34-.04.8v.88l.04.73-.04.76-.04.65-.04.8-.04.92v.38l.04.46.04.42-.04.27.04.5v.84l-.08.38.08.31-.04.42.04.42-.08.42-.04.57v.54l-.04.61v.54l-.08.38.08.23-.08.57.04,1.03v.57l.04.34-.08.42.04.34-.04.34v.96l.04.61-.08.5v.34l.11.27.08.38.04.42-.08.46-.15.46-.23.42-.27.11-.69.31-.42.15-.76-.11Z"/>
          <path class="cls-4" d="m523.18,331.88l-.27-.04-.34.04-.88-.08-.76.04-.5-.04-1.07.04h-.8l-.73-.04h-.61l-.54.08-.61-.04-.19.04-.84-.08h-1.15l-1.26-.04-1.38.04h-1.22l-.61-.04-.61-.34-.46-.76-.08-.92v-2.71l-.04-1.18.04-.88v-1.18l-.04-.73-.04-.8-.04-.38v-.54l.04-.57v-.92l-.04-.11.04-.34-.04-.46v-.34l-.04-.92.04-1.61.04-1.07v-.65l-.04-1.11v-2.48l-.08-.65.04-.5v-.46l.04-.73v-.42l.04-.73.04-1.03.15-.5.27-.42.42-.27.31-.15.42-.08h1.11l1.61.08h2.52l1.07-.04.8-.04,1.18-.04h2.48l.84.11h.84l.61-.08,1.07.04.61.04,1.53-.08.42.04.57-.04.61.08.57.23.31.46.23.76.08.8-.04.5-.23.69-.42.54-.42.15-.88.08-1.38.04-.8.04-.34-.04-1.22.08h-1.8l-1.45-.04-.88-.04h-.38l-.76.08-2.03.04h-.69l-.84.04h-.73l-.69.19-.11.61-.04.65-.08.27v.65l-.04.88.08.96-.04.99.19.88.46.27h.31l.84.11.99-.08h.65l.8.08.84-.08,2.9-.04h2.1l.57.04.65.19.46.46.15.42.08.38.04.31.08.88-.11.8-.27.46-.76.38h-2.03l-2.22.11-1.22-.04h-.42l-1.57-.04-.46.04-.69-.04-.92.04-.46.08-.5.15-.27.23-.04.54-.04.57-.08.65v.84l.04.57v.73l-.04.61v1.03l.34.99,1.07.46h2.68l1.07-.04,1.07.04,2.18-.04.8-.08h2.29l.46.08h.73l1.18.04.96.08h.5l.31.08.34.23.23.34.11.69-.04.8v.46l-.08.42-.15.46-.23.31-.27.15-.38.11-1.91.19-.99.11h-1.07l-.76-.04Z"/>
        </g>
      </g>
    </g>
  </g>
</svg>