<?xml version="1.0" encoding="utf-8"?>
<!-- Generator: Adobe Illustrator 27.2.0, SVG Export Plug-In . SVG Version: 6.00 Build 0)  -->
<svg version="1.1" id="_レイヤー_2" xmlns="http://www.w3.org/2000/svg" xmlns:xlink="http://www.w3.org/1999/xlink" x="0px"
	 y="0px" viewBox="0 0 1370.3 2241.6" style="enable-background:new 0 0 1370.3 2241.6;" xml:space="preserve">
<style type="text/css">
	.st0{clip-path:url(#SVGID_00000018944673361713478700000018264664438375590037_);}
	.st1{fill:#F2F2F2;}
	.st2{fill:#F7F7F7;}
	.st3{fill:#FAFAFA;}
	.st4{fill:#EDEDED;}
	.st5{fill:#F4F4F4;}
	.st6{fill:#F5F5F5;}
	.st7{fill:#F0F0F0;}
	.st8{clip-path:url(#SVGID_00000018944673361713478700000018264664438375590037_);fill:#F2F2F2;}
	.st9{clip-path:url(#SVGID_00000018944673361713478700000018264664438375590037_);fill:#F7F7F7;}
	.st10{clip-path:url(#SVGID_00000018944673361713478700000018264664438375590037_);fill:#FAFAFA;}
	.st11{clip-path:url(#SVGID_00000018944673361713478700000018264664438375590037_);fill:#F4F4F4;}
</style>
<g>
	<defs>
		<rect id="SVGID_1_" width="1370.3" height="2241.6"/>
	</defs>
	<clipPath id="SVGID_00000158004591662041974250000001435984186571051681_">
		<use xlink:href="#SVGID_1_"  style="overflow:visible;"/>
	</clipPath>
	<g id="_背景" style="clip-path:url(#SVGID_00000158004591662041974250000001435984186571051681_);">
		<g>
			<g>
				<g>
					<polygon class="st1" points="1370.3,1054.9 1446.5,923 1294.2,923 					"/>
					<polygon class="st2" points="1370.3,1054.9 1294.2,923 1218.1,1054.9 					"/>
					<polygon class="st3" points="1218.1,1054.9 1294.2,923 1142,923 					"/>
					<polygon class="st2" points="1218.1,1054.9 1142,923 1065.8,1054.9 					"/>
					<polygon class="st2" points="1065.8,1054.9 1142,923 989.7,923 					"/>
					<polygon class="st1" points="1065.8,1054.9 989.7,923 913.6,1054.9 					"/>
					<polygon class="st2" points="913.6,1054.9 989.7,923 837.4,923 					"/>
					<polygon class="st4" points="913.6,1054.9 837.4,923 761.3,1054.9 					"/>
					<polygon class="st2" points="761.3,1054.9 837.4,923 685.2,923 					"/>
					<polygon class="st1" points="761.3,1054.9 685.2,923 609,1054.9 					"/>
					<polygon class="st2" points="609,1054.9 685.2,923 532.9,923 					"/>
					<polygon class="st2" points="609,1054.9 532.9,923 456.8,1054.9 					"/>
					<polygon class="st3" points="456.8,1054.9 532.9,923 380.7,923 					"/>
					<polygon class="st4" points="456.8,1054.9 380.7,923 304.5,1054.9 					"/>
					<polygon class="st2" points="304.5,1054.9 380.7,923 228.4,923 					"/>
					<polygon class="st3" points="304.5,1054.9 228.4,923 152.3,1054.9 					"/>
					<polygon class="st2" points="152.3,1054.9 228.4,923 76.1,923 					"/>
					<polygon class="st2" points="152.3,1054.9 76.1,923 0,1054.9 					"/>
					<polygon class="st2" points="1370.3,791.2 1446.5,659.3 1294.2,659.3 					"/>
					<polygon class="st1" points="1370.3,791.2 1294.2,659.3 1218.1,791.2 					"/>
					<polygon class="st1" points="1370.3,791.2 1218.1,791.2 1294.2,923 					"/>
					<polygon class="st2" points="1370.3,791.2 1294.2,923 1446.5,923 					"/>
					<polygon class="st2" points="1218.1,791.2 1294.2,659.3 1142,659.3 					"/>
					<polygon class="st2" points="1218.1,791.2 1142,659.3 1065.8,791.2 					"/>
					<polygon class="st3" points="1218.1,791.2 1065.8,791.2 1142,923 					"/>
					<polygon class="st2" points="1218.1,791.2 1142,923 1294.2,923 					"/>
					<polygon class="st1" points="1065.8,791.2 1142,659.3 989.7,659.3 					"/>
					<polygon class="st2" points="1065.8,791.2 989.7,659.3 913.6,791.2 					"/>
					<polygon class="st2" points="1065.8,791.2 913.6,791.2 989.7,923 					"/>
					<polygon class="st1" points="1065.8,791.2 989.7,923 1142,923 					"/>
					<polygon class="st1" points="913.6,791.2 989.7,659.3 837.4,659.3 					"/>
					<polygon class="st3" points="913.6,791.2 837.4,659.3 761.3,791.2 					"/>
					<polygon class="st2" points="913.6,791.2 761.3,791.2 837.4,923 					"/>
					<polygon class="st5" points="913.6,791.2 837.4,923 989.7,923 					"/>
					<polygon class="st2" points="761.3,791.2 837.4,659.3 685.2,659.3 					"/>
					<polygon class="st1" points="761.3,791.2 685.2,659.3 609,791.2 					"/>
					<polygon class="st2" points="761.3,791.2 609,791.2 685.2,923 					"/>
					<polygon class="st3" points="761.3,791.2 685.2,923 837.4,923 					"/>
					<polygon class="st6" points="609,791.2 685.2,659.3 532.9,659.3 					"/>
					<polygon class="st2" points="609,791.2 532.9,659.3 456.8,791.2 					"/>
					<polygon class="st4" points="609,791.2 456.8,791.2 532.9,923 					"/>
					<polygon class="st5" points="609,791.2 532.9,923 685.2,923 					"/>
					<polygon class="st5" points="456.8,791.2 532.9,659.3 380.7,659.3 					"/>
					<polygon class="st2" points="456.8,791.2 380.7,659.3 304.5,791.2 					"/>
					<polygon class="st1" points="456.8,791.2 304.5,791.2 380.7,923 					"/>
					<polygon class="st2" points="456.8,791.2 380.7,923 532.9,923 					"/>
					<polygon class="st5" points="304.5,791.2 380.7,659.3 228.4,659.3 					"/>
					<polygon class="st2" points="304.5,791.2 228.4,659.3 152.3,791.2 					"/>
					<polygon class="st5" points="304.5,791.2 152.3,791.2 228.4,923 					"/>
					<polygon class="st2" points="304.5,791.2 228.4,923 380.7,923 					"/>
					<polygon class="st3" points="152.3,791.2 228.4,659.3 76.1,659.3 					"/>
					<polygon class="st2" points="152.3,791.2 76.1,659.3 0,791.2 					"/>
					<polygon class="st2" points="152.3,791.2 0,791.2 76.1,923 					"/>
					<polygon class="st1" points="152.3,791.2 76.1,923 228.4,923 					"/>
					<polygon class="st2" points="1370.3,527.4 1446.5,395.6 1294.2,395.6 					"/>
					<polygon class="st1" points="1370.3,527.4 1294.2,395.6 1218.1,527.4 					"/>
					<polygon class="st2" points="1370.3,527.4 1218.1,527.4 1294.2,659.3 					"/>
					<polygon class="st3" points="1370.3,527.4 1294.2,659.3 1446.5,659.3 					"/>
					<polygon class="st3" points="1218.1,527.4 1294.2,395.6 1142,395.6 					"/>
					<polygon class="st4" points="1218.1,527.4 1142,395.6 1065.8,527.4 					"/>
					<polygon class="st2" points="1218.1,527.4 1065.8,527.4 1142,659.3 					"/>
					<polygon class="st1" points="1218.1,527.4 1142,659.3 1294.2,659.3 					"/>
					<polygon class="st2" points="1065.8,527.4 1142,395.6 989.7,395.6 					"/>
					<polygon class="st5" points="1065.8,527.4 989.7,395.6 913.6,527.4 					"/>
					<polygon class="st3" points="1065.8,527.4 913.6,527.4 989.7,659.3 					"/>
					<polygon class="st2" points="1065.8,527.4 989.7,659.3 1142,659.3 					"/>
					<polygon class="st2" points="913.6,527.4 989.7,395.6 837.4,395.6 					"/>
					<polygon class="st1" points="913.6,527.4 837.4,395.6 761.3,527.4 					"/>
					<polygon class="st2" points="913.6,527.4 761.3,527.4 837.4,659.3 					"/>
					<polygon class="st3" points="913.6,527.4 837.4,659.3 989.7,659.3 					"/>
					<polygon class="st2" points="761.3,527.4 837.4,395.6 685.2,395.6 					"/>
					<polygon class="st5" points="761.3,527.4 685.2,395.6 609,527.4 					"/>
					<polygon class="st2" points="761.3,527.4 609,527.4 685.2,659.3 					"/>
					<polygon class="st1" points="761.3,527.4 685.2,659.3 837.4,659.3 					"/>
					<polygon class="st2" points="609,527.4 685.2,395.6 532.9,395.6 					"/>
					<polygon class="st1" points="609,527.4 532.9,395.6 456.8,527.4 					"/>
					<polygon class="st3" points="609,527.4 456.8,527.4 532.9,659.3 					"/>
					<polygon class="st2" points="609,527.4 532.9,659.3 685.2,659.3 					"/>
					<polygon class="st4" points="456.8,527.4 532.9,395.6 380.7,395.6 					"/>
					<polygon class="st2" points="456.8,527.4 380.7,395.6 304.5,527.4 					"/>
					<polygon class="st1" points="456.8,527.4 304.5,527.4 380.7,659.3 					"/>
					<polygon class="st2" points="456.8,527.4 380.7,659.3 532.9,659.3 					"/>
					<polygon class="st6" points="304.5,527.4 380.7,395.6 228.4,395.6 					"/>
					<polygon class="st2" points="304.5,527.4 228.4,395.6 152.3,527.4 					"/>
					<polygon class="st7" points="304.5,527.4 152.3,527.4 228.4,659.3 					"/>
					<polygon class="st3" points="304.5,527.4 228.4,659.3 380.7,659.3 					"/>
					<polygon class="st4" points="152.3,527.4 228.4,395.6 76.1,395.6 					"/>
					<polygon class="st2" points="152.3,527.4 76.1,395.6 0,527.4 					"/>
					<polygon class="st2" points="152.3,527.4 0,527.4 76.1,659.3 					"/>
					<polygon class="st6" points="152.3,527.4 76.1,659.3 228.4,659.3 					"/>
					<polygon class="st2" points="1370.3,263.7 1446.5,131.9 1294.2,131.9 					"/>
					<polygon class="st1" points="1370.3,263.7 1294.2,131.9 1218.1,263.7 					"/>
					<polygon class="st4" points="1370.3,263.7 1218.1,263.7 1294.2,395.6 					"/>
					<polygon class="st1" points="1370.3,263.7 1294.2,395.6 1446.5,395.6 					"/>
					<polygon class="st2" points="1218.1,263.7 1294.2,131.9 1142,131.9 					"/>
					<polygon class="st6" points="1218.1,263.7 1142,131.9 1065.8,263.7 					"/>
					<polygon class="st1" points="1218.1,263.7 1065.8,263.7 1142,395.6 					"/>
					<polygon class="st2" points="1218.1,263.7 1142,395.6 1294.2,395.6 					"/>
					<polygon class="st2" points="1065.8,263.7 1142,131.9 989.7,131.9 					"/>
					<polygon class="st1" points="1065.8,263.7 989.7,131.9 913.6,263.7 					"/>
					<polygon class="st2" points="1065.8,263.7 913.6,263.7 989.7,395.6 					"/>
					<polygon class="st3" points="1065.8,263.7 989.7,395.6 1142,395.6 					"/>
					<polygon class="st2" points="913.6,263.7 989.7,131.9 837.4,131.9 					"/>
					<polygon class="st3" points="913.6,263.7 837.4,131.9 761.3,263.7 					"/>
					<polygon class="st2" points="913.6,263.7 761.3,263.7 837.4,395.6 					"/>
					<polygon class="st5" points="913.6,263.7 837.4,395.6 989.7,395.6 					"/>
					<polygon class="st1" points="761.3,263.7 837.4,131.9 685.2,131.9 					"/>
					<polygon class="st2" points="761.3,263.7 685.2,131.9 609,263.7 					"/>
					<polygon class="st3" points="761.3,263.7 609,263.7 685.2,395.6 					"/>
					<polygon class="st4" points="761.3,263.7 685.2,395.6 837.4,395.6 					"/>
					<polygon class="st2" points="609,263.7 685.2,131.9 532.9,131.9 					"/>
					<polygon class="st2" points="609,263.7 532.9,131.9 456.8,263.7 					"/>
					<polygon class="st7" points="609,263.7 456.8,263.7 532.9,395.6 					"/>
					<polygon class="st2" points="609,263.7 532.9,395.6 685.2,395.6 					"/>
					<polygon class="st3" points="456.8,263.7 532.9,131.9 380.7,131.9 					"/>
					<polygon class="st1" points="456.8,263.7 380.7,131.9 304.5,263.7 					"/>
					<polygon class="st2" points="456.8,263.7 304.5,263.7 380.7,395.6 					"/>
					<polygon class="st5" points="456.8,263.7 380.7,395.6 532.9,395.6 					"/>
					<polygon class="st6" points="304.5,263.7 380.7,131.9 228.4,131.9 					"/>
					<polygon class="st4" points="304.5,263.7 228.4,131.9 152.3,263.7 					"/>
					<polygon class="st2" points="304.5,263.7 152.3,263.7 228.4,395.6 					"/>
					<polygon class="st1" points="304.5,263.7 228.4,395.6 380.7,395.6 					"/>
					<polygon class="st3" points="152.3,263.7 228.4,131.9 76.1,131.9 					"/>
					<polygon class="st2" points="152.3,263.7 76.1,131.9 0,263.7 					"/>
					<polygon class="st2" points="152.3,263.7 0,263.7 76.1,395.6 					"/>
					<polygon class="st4" points="152.3,263.7 76.1,395.6 228.4,395.6 					"/>
					<polygon class="st2" points="1370.3,0 1218.1,0 1294.2,131.9 					"/>
					<polygon class="st3" points="1370.3,0 1294.2,131.9 1446.5,131.9 					"/>
					<polygon class="st3" points="1218.1,0 1065.8,0 1142,131.9 					"/>
					<polygon class="st1" points="1218.1,0 1142,131.9 1294.2,131.9 					"/>
					<polygon class="st2" points="1065.8,0 913.6,0 989.7,131.9 					"/>
					<polygon class="st1" points="1065.8,0 989.7,131.9 1142,131.9 					"/>
					<polygon class="st2" points="913.6,0 761.3,0 837.4,131.9 					"/>
					<polygon class="st1" points="913.6,0 837.4,131.9 989.7,131.9 					"/>
					<polygon class="st2" points="761.3,0 609,0 685.2,131.9 					"/>
					<polygon class="st1" points="761.3,0 685.2,131.9 837.4,131.9 					"/>
					<polygon class="st1" points="609,0 456.8,0 532.9,131.9 					"/>
					<polygon class="st4" points="609,0 532.9,131.9 685.2,131.9 					"/>
					<polygon class="st1" points="456.8,0 304.5,0 380.7,131.9 					"/>
					<polygon class="st2" points="456.8,0 380.7,131.9 532.9,131.9 					"/>
					<polygon class="st5" points="304.5,0 152.3,0 228.4,131.9 					"/>
					<polygon class="st1" points="304.5,0 228.4,131.9 380.7,131.9 					"/>
					<polygon class="st2" points="152.3,0 0,0 76.1,131.9 					"/>
					<polygon class="st2" points="152.3,0 76.1,131.9 228.4,131.9 					"/>
					<polygon class="st1" points="1370.3,2109.8 1446.5,1977.9 1294.2,1977.9 					"/>
					<polygon class="st2" points="1370.3,2109.8 1294.2,1977.9 1218.1,2109.8 					"/>
					<polygon class="st2" points="1370.3,2109.8 1218.1,2109.8 1294.2,2241.6 					"/>
					<polygon class="st5" points="1370.3,2109.8 1294.2,2241.6 1446.5,2241.6 					"/>
					<polygon class="st5" points="1218.1,2109.8 1294.2,1977.9 1142,1977.9 					"/>
					<polygon class="st3" points="1218.1,2109.8 1142,1977.9 1065.8,2109.8 					"/>
					<polygon class="st2" points="1218.1,2109.8 1065.8,2109.8 1142,2241.6 					"/>
					<polygon class="st4" points="1218.1,2109.8 1142,2241.6 1294.2,2241.6 					"/>
					<polygon class="st2" points="1065.8,2109.8 1142,1977.9 989.7,1977.9 					"/>
					<polygon class="st5" points="1065.8,2109.8 989.7,1977.9 913.6,2109.8 					"/>
					<polygon class="st2" points="1065.8,2109.8 913.6,2109.8 989.7,2241.6 					"/>
					<polygon class="st7" points="1065.8,2109.8 989.7,2241.6 1142,2241.6 					"/>
					<polygon class="st6" points="913.6,2109.8 989.7,1977.9 837.4,1977.9 					"/>
					<polygon class="st3" points="913.6,2109.8 837.4,1977.9 761.3,2109.8 					"/>
					<polygon class="st1" points="913.6,2109.8 761.3,2109.8 837.4,2241.6 					"/>
					<polygon class="st3" points="913.6,2109.8 837.4,2241.6 989.7,2241.6 					"/>
					<polygon class="st2" points="761.3,2109.8 837.4,1977.9 685.2,1977.9 					"/>
					<polygon class="st6" points="761.3,2109.8 685.2,1977.9 609,2109.8 					"/>
					<polygon class="st2" points="761.3,2109.8 609,2109.8 685.2,2241.6 					"/>
					<polygon class="st2" points="761.3,2109.8 685.2,2241.6 837.4,2241.6 					"/>
					<polygon class="st2" points="609,2109.8 685.2,1977.9 532.9,1977.9 					"/>
					<polygon class="st4" points="609,2109.8 532.9,1977.9 456.8,2109.8 					"/>
					<polygon class="st5" points="609,2109.8 456.8,2109.8 532.9,2241.6 					"/>
					<polygon class="st2" points="609,2109.8 532.9,2241.6 685.2,2241.6 					"/>
					<polygon class="st2" points="456.8,2109.8 532.9,1977.9 380.7,1977.9 					"/>
					<polygon class="st2" points="456.8,2109.8 380.7,1977.9 304.5,2109.8 					"/>
					<polygon class="st1" points="456.8,2109.8 304.5,2109.8 380.7,2241.6 					"/>
					<polygon class="st2" points="456.8,2109.8 380.7,2241.6 532.9,2241.6 					"/>
					<polygon class="st2" points="304.5,2109.8 380.7,1977.9 228.4,1977.9 					"/>
					<polygon class="st3" points="304.5,2109.8 228.4,1977.9 152.3,2109.8 					"/>
					<polygon class="st2" points="304.5,2109.8 152.3,2109.8 228.4,2241.6 					"/>
					<polygon class="st3" points="304.5,2109.8 228.4,2241.6 380.7,2241.6 					"/>
					<polygon class="st1" points="152.3,2109.8 228.4,1977.9 76.1,1977.9 					"/>
					<polygon class="st2" points="152.3,2109.8 76.1,1977.9 0,2109.8 					"/>
					<polygon class="st2" points="152.3,2109.8 0,2109.8 76.1,2241.6 					"/>
					<polygon class="st1" points="152.3,2109.8 76.1,2241.6 228.4,2241.6 					"/>
					<polygon class="st2" points="1370.3,1846 1446.5,1714.2 1294.2,1714.2 					"/>
					<polygon class="st2" points="1370.3,1846 1294.2,1714.2 1218.1,1846 					"/>
					<polygon class="st7" points="1370.3,1846 1218.1,1846 1294.2,1977.9 					"/>
					<polygon class="st2" points="1370.3,1846 1294.2,1977.9 1446.5,1977.9 					"/>
					<polygon class="st3" points="1218.1,1846 1294.2,1714.2 1142,1714.2 					"/>
					<polygon class="st1" points="1218.1,1846 1142,1714.2 1065.8,1846 					"/>
					<polygon class="st2" points="1218.1,1846 1065.8,1846 1142,1977.9 					"/>
					<polygon class="st3" points="1218.1,1846 1142,1977.9 1294.2,1977.9 					"/>
					<polygon class="st2" points="1065.8,1846 1142,1714.2 989.7,1714.2 					"/>
					<polygon class="st2" points="1065.8,1846 989.7,1714.2 913.6,1846 					"/>
					<polygon class="st2" points="1065.8,1846 913.6,1846 989.7,1977.9 					"/>
					<polygon class="st5" points="1065.8,1846 989.7,1977.9 1142,1977.9 					"/>
					<polygon class="st1" points="913.6,1846 989.7,1714.2 837.4,1714.2 					"/>
					<polygon class="st2" points="913.6,1846 837.4,1714.2 761.3,1846 					"/>
					<polygon class="st2" points="913.6,1846 761.3,1846 837.4,1977.9 					"/>
					<polygon class="st1" points="913.6,1846 837.4,1977.9 989.7,1977.9 					"/>
					<polygon class="st5" points="761.3,1846 837.4,1714.2 685.2,1714.2 					"/>
					<polygon class="st2" points="761.3,1846 685.2,1714.2 609,1846 					"/>
					<polygon class="st3" points="761.3,1846 609,1846 685.2,1977.9 					"/>
					<polygon class="st6" points="761.3,1846 685.2,1977.9 837.4,1977.9 					"/>
					<polygon class="st2" points="609,1846 685.2,1714.2 532.9,1714.2 					"/>
					<polygon class="st6" points="609,1846 532.9,1714.2 456.8,1846 					"/>
					<polygon class="st2" points="609,1846 456.8,1846 532.9,1977.9 					"/>
					<polygon class="st1" points="609,1846 532.9,1977.9 685.2,1977.9 					"/>
					<polygon class="st2" points="456.8,1846 532.9,1714.2 380.7,1714.2 					"/>
					<polygon class="st1" points="456.8,1846 380.7,1714.2 304.5,1846 					"/>
					<polygon class="st2" points="456.8,1846 304.5,1846 380.7,1977.9 					"/>
					<polygon class="st3" points="456.8,1846 380.7,1977.9 532.9,1977.9 					"/>
					<polygon class="st3" points="304.5,1846 380.7,1714.2 228.4,1714.2 					"/>
					<polygon class="st2" points="304.5,1846 228.4,1714.2 152.3,1846 					"/>
					<polygon class="st4" points="304.5,1846 152.3,1846 228.4,1977.9 					"/>
					<polygon class="st7" points="304.5,1846 228.4,1977.9 380.7,1977.9 					"/>
					<polygon class="st2" points="152.3,1846 228.4,1714.2 76.1,1714.2 					"/>
					<polygon class="st3" points="152.3,1846 76.1,1714.2 0,1846 					"/>
					<polygon class="st2" points="152.3,1846 0,1846 76.1,1977.9 					"/>
					<polygon class="st1" points="152.3,1846 76.1,1977.9 228.4,1977.9 					"/>
					<polygon class="st2" points="1370.3,1582.3 1446.5,1450.5 1294.2,1450.5 					"/>
					<polygon class="st2" points="1370.3,1582.3 1294.2,1450.5 1218.1,1582.3 					"/>
					<polygon class="st5" points="1370.3,1582.3 1218.1,1582.3 1294.2,1714.2 					"/>
					<polygon class="st3" points="1370.3,1582.3 1294.2,1714.2 1446.5,1714.2 					"/>
					<polygon class="st1" points="1218.1,1582.3 1294.2,1450.5 1142,1450.5 					"/>
					<polygon class="st2" points="1218.1,1582.3 1142,1450.5 1065.8,1582.3 					"/>
					<polygon class="st2" points="1218.1,1582.3 1065.8,1582.3 1142,1714.2 					"/>
					<polygon class="st5" points="1218.1,1582.3 1142,1714.2 1294.2,1714.2 					"/>
					<polygon class="st2" points="1065.8,1582.3 1142,1450.5 989.7,1450.5 					"/>
					<polygon class="st5" points="1065.8,1582.3 989.7,1450.5 913.6,1582.3 					"/>
					<polygon class="st2" points="1065.8,1582.3 913.6,1582.3 989.7,1714.2 					"/>
					<polygon class="st4" points="1065.8,1582.3 989.7,1714.2 1142,1714.2 					"/>
					<polygon class="st3" points="913.6,1582.3 989.7,1450.5 837.4,1450.5 					"/>
					<polygon class="st1" points="913.6,1582.3 837.4,1450.5 761.3,1582.3 					"/>
					<polygon class="st2" points="913.6,1582.3 761.3,1582.3 837.4,1714.2 					"/>
					<polygon class="st2" points="913.6,1582.3 837.4,1714.2 989.7,1714.2 					"/>
					<polygon class="st2" points="761.3,1582.3 837.4,1450.5 685.2,1450.5 					"/>
					<polygon class="st5" points="761.3,1582.3 685.2,1450.5 609,1582.3 					"/>
					<polygon class="st2" points="761.3,1582.3 609,1582.3 685.2,1714.2 					"/>
					<polygon class="st3" points="761.3,1582.3 685.2,1714.2 837.4,1714.2 					"/>
					<polygon class="st2" points="609,1582.3 685.2,1450.5 532.9,1450.5 					"/>
					<polygon class="st2" points="609,1582.3 532.9,1450.5 456.8,1582.3 					"/>
					<polygon class="st3" points="609,1582.3 456.8,1582.3 532.9,1714.2 					"/>
					<polygon class="st5" points="609,1582.3 532.9,1714.2 685.2,1714.2 					"/>
					<polygon class="st5" points="456.8,1582.3 532.9,1450.5 380.7,1450.5 					"/>
					<polygon class="st2" points="456.8,1582.3 380.7,1450.5 304.5,1582.3 					"/>
					<polygon class="st5" points="456.8,1582.3 304.5,1582.3 380.7,1714.2 					"/>
					<polygon class="st4" points="456.8,1582.3 380.7,1714.2 532.9,1714.2 					"/>
					<polygon class="st5" points="304.5,1582.3 380.7,1450.5 228.4,1450.5 					"/>
					<polygon class="st2" points="304.5,1582.3 228.4,1450.5 152.3,1582.3 					"/>
					<polygon class="st2" points="304.5,1582.3 152.3,1582.3 228.4,1714.2 					"/>
					<polygon class="st2" points="304.5,1582.3 228.4,1714.2 380.7,1714.2 					"/>
					<polygon class="st1" points="152.3,1582.3 228.4,1450.5 76.1,1450.5 					"/>
					<polygon class="st2" points="152.3,1582.3 76.1,1450.5 0,1582.3 					"/>
					<polygon class="st1" points="152.3,1582.3 0,1582.3 76.1,1714.2 					"/>
					<polygon class="st4" points="152.3,1582.3 76.1,1714.2 228.4,1714.2 					"/>
					<polygon class="st1" points="1370.3,1318.6 1446.5,1186.7 1294.2,1186.7 					"/>
					<polygon class="st2" points="1370.3,1318.6 1294.2,1186.7 1218.1,1318.6 					"/>
					<polygon class="st2" points="1370.3,1318.6 1218.1,1318.6 1294.2,1450.5 					"/>
					<polygon class="st5" points="1370.3,1318.6 1294.2,1450.5 1446.5,1450.5 					"/>
					<polygon class="st3" points="1218.1,1318.6 1294.2,1186.7 1142,1186.7 					"/>
					<polygon class="st2" points="1218.1,1318.6 1142,1186.7 1065.8,1318.6 					"/>
					<polygon class="st2" points="1218.1,1318.6 1065.8,1318.6 1142,1450.5 					"/>
					<polygon class="st1" points="1218.1,1318.6 1142,1450.5 1294.2,1450.5 					"/>
					<polygon class="st4" points="1065.8,1318.6 1142,1186.7 989.7,1186.7 					"/>
					<polygon class="st2" points="1065.8,1318.6 989.7,1186.7 913.6,1318.6 					"/>
					<polygon class="st5" points="1065.8,1318.6 913.6,1318.6 989.7,1450.5 					"/>
					<polygon class="st5" points="1065.8,1318.6 989.7,1450.5 1142,1450.5 					"/>
					<polygon class="st1" points="913.6,1318.6 989.7,1186.7 837.4,1186.7 					"/>
					<polygon class="st2" points="913.6,1318.6 837.4,1186.7 761.3,1318.6 					"/>
					<polygon class="st1" points="913.6,1318.6 761.3,1318.6 837.4,1450.5 					"/>
					<polygon class="st2" points="913.6,1318.6 837.4,1450.5 989.7,1450.5 					"/>
					<polygon class="st5" points="761.3,1318.6 837.4,1186.7 685.2,1186.7 					"/>
					<polygon class="st2" points="761.3,1318.6 685.2,1186.7 609,1318.6 					"/>
					<polygon class="st3" points="761.3,1318.6 609,1318.6 685.2,1450.5 					"/>
					<polygon class="st2" points="761.3,1318.6 685.2,1450.5 837.4,1450.5 					"/>
					<polygon class="st2" points="609,1318.6 685.2,1186.7 532.9,1186.7 					"/>
					<polygon class="st7" points="609,1318.6 532.9,1186.7 456.8,1318.6 					"/>
					<polygon class="st2" points="609,1318.6 456.8,1318.6 532.9,1450.5 					"/>
					<polygon class="st5" points="609,1318.6 532.9,1450.5 685.2,1450.5 					"/>
					<polygon class="st5" points="456.8,1318.6 532.9,1186.7 380.7,1186.7 					"/>
					<polygon class="st2" points="456.8,1318.6 380.7,1186.7 304.5,1318.6 					"/>
					<polygon class="st2" points="456.8,1318.6 304.5,1318.6 380.7,1450.5 					"/>
					<polygon class="st1" points="456.8,1318.6 380.7,1450.5 532.9,1450.5 					"/>
					<polygon class="st1" points="304.5,1318.6 380.7,1186.7 228.4,1186.7 					"/>
					<polygon class="st4" points="304.5,1318.6 228.4,1186.7 152.3,1318.6 					"/>
					<polygon class="st2" points="304.5,1318.6 152.3,1318.6 228.4,1450.5 					"/>
					<polygon class="st3" points="304.5,1318.6 228.4,1450.5 380.7,1450.5 					"/>
					<polygon class="st5" points="152.3,1318.6 228.4,1186.7 76.1,1186.7 					"/>
					<polygon class="st2" points="152.3,1318.6 76.1,1186.7 0,1318.6 					"/>
					<polygon class="st7" points="152.3,1318.6 0,1318.6 76.1,1450.5 					"/>
					<polygon class="st6" points="152.3,1318.6 76.1,1450.5 228.4,1450.5 					"/>
					<polygon class="st1" points="1370.3,1054.9 1218.1,1054.9 1294.2,1186.7 					"/>
					<polygon class="st2" points="1370.3,1054.9 1294.2,1186.7 1446.5,1186.7 					"/>
					<polygon class="st5" points="1218.1,1054.9 1065.8,1054.9 1142,1186.7 					"/>
					<polygon class="st2" points="1218.1,1054.9 1142,1186.7 1294.2,1186.7 					"/>
					<polygon class="st3" points="1065.8,1054.9 913.6,1054.9 989.7,1186.7 					"/>
					<polygon class="st2" points="1065.8,1054.9 989.7,1186.7 1142,1186.7 					"/>
					<polygon class="st5" points="913.6,1054.9 761.3,1054.9 837.4,1186.7 					"/>
					<polygon class="st2" points="913.6,1054.9 837.4,1186.7 989.7,1186.7 					"/>
					<polygon class="st2" points="761.3,1054.9 609,1054.9 685.2,1186.7 					"/>
					<polygon class="st3" points="761.3,1054.9 685.2,1186.7 837.4,1186.7 					"/>
					<polygon class="st2" points="609,1054.9 456.8,1054.9 532.9,1186.7 					"/>
					<polygon class="st1" points="609,1054.9 532.9,1186.7 685.2,1186.7 					"/>
					<polygon class="st2" points="456.8,1054.9 304.5,1054.9 380.7,1186.7 					"/>
					<polygon class="st1" points="456.8,1054.9 380.7,1186.7 532.9,1186.7 					"/>
					<polygon class="st3" points="304.5,1054.9 152.3,1054.9 228.4,1186.7 					"/>
					<polygon class="st2" points="304.5,1054.9 228.4,1186.7 380.7,1186.7 					"/>
					<polygon class="st2" points="152.3,1054.9 0,1054.9 76.1,1186.7 					"/>
					<polygon class="st1" points="152.3,1054.9 76.1,1186.7 228.4,1186.7 					"/>
				</g>
			</g>
		</g>
	</g>
	<polygon style="clip-path:url(#SVGID_00000158004591662041974250000001435984186571051681_);fill:#F2F2F2;" points="0,1054.9 
		76.1,923 -76.1,923 	"/>
	<polygon style="clip-path:url(#SVGID_00000158004591662041974250000001435984186571051681_);fill:#F7F7F7;" points="0,791.2 
		76.1,659.3 -76.1,659.3 	"/>
	<polygon style="clip-path:url(#SVGID_00000158004591662041974250000001435984186571051681_);fill:#F7F7F7;" points="0,791.2 
		-76.1,923 76.1,923 	"/>
	<polygon style="clip-path:url(#SVGID_00000158004591662041974250000001435984186571051681_);fill:#F7F7F7;" points="0,527.4 
		76.1,395.6 -76.1,395.6 	"/>
	<polygon style="clip-path:url(#SVGID_00000158004591662041974250000001435984186571051681_);fill:#FAFAFA;" points="0,527.4 
		-76.1,659.3 76.1,659.3 	"/>
	<polygon style="clip-path:url(#SVGID_00000158004591662041974250000001435984186571051681_);fill:#F7F7F7;" points="0,263.7 
		76.1,131.9 -76.1,131.9 	"/>
	<polygon style="clip-path:url(#SVGID_00000158004591662041974250000001435984186571051681_);fill:#F2F2F2;" points="0,263.7 
		-76.1,395.6 76.1,395.6 	"/>
	<polygon style="clip-path:url(#SVGID_00000158004591662041974250000001435984186571051681_);fill:#FAFAFA;" points="0,0 
		-76.1,131.9 76.1,131.9 	"/>
	<polygon style="clip-path:url(#SVGID_00000158004591662041974250000001435984186571051681_);fill:#F2F2F2;" points="0,2109.8 
		76.1,1977.9 -76.1,1977.9 	"/>
	<polygon style="clip-path:url(#SVGID_00000158004591662041974250000001435984186571051681_);fill:#F4F4F4;" points="0,2109.8 
		-76.1,2241.6 76.1,2241.6 	"/>
	<polygon style="clip-path:url(#SVGID_00000158004591662041974250000001435984186571051681_);fill:#F7F7F7;" points="0,1846 
		76.1,1714.2 -76.1,1714.2 	"/>
	<polygon style="clip-path:url(#SVGID_00000158004591662041974250000001435984186571051681_);fill:#F7F7F7;" points="0,1846 
		-76.1,1977.9 76.1,1977.9 	"/>
	<polygon style="clip-path:url(#SVGID_00000158004591662041974250000001435984186571051681_);fill:#F7F7F7;" points="0,1582.3 
		76.1,1450.5 -76.1,1450.5 	"/>
	<polygon style="clip-path:url(#SVGID_00000158004591662041974250000001435984186571051681_);fill:#FAFAFA;" points="0,1582.3 
		-76.1,1714.2 76.1,1714.2 	"/>
	<polygon style="clip-path:url(#SVGID_00000158004591662041974250000001435984186571051681_);fill:#F2F2F2;" points="0,1318.6 
		76.1,1186.7 -76.1,1186.7 	"/>
	<polygon style="clip-path:url(#SVGID_00000158004591662041974250000001435984186571051681_);fill:#F4F4F4;" points="0,1318.6 
		-76.1,1450.5 76.1,1450.5 	"/>
	<polygon style="clip-path:url(#SVGID_00000158004591662041974250000001435984186571051681_);fill:#F7F7F7;" points="0,1054.9 
		-76.1,1186.7 76.1,1186.7 	"/>
</g>
</svg>
