<?xml version="1.0" encoding="UTF-8"?>
<svg id="_レイヤー_2" data-name="レイヤー 2" xmlns="http://www.w3.org/2000/svg" viewBox="0 0 300.39 50">
  <defs>
    <style>
      .cls-1 {
        fill: #fff;
      }
    </style>
  </defs>
  <g id="_フッター" data-name="フッター">
    <g>
      <g>
        <path class="cls-1" d="m40.34,32.91v-16.63h7.29l23.08,18.84c5.7-5.3,10.2-11.74,10.2-18.84C80.91,0,65.05,0,65.05,0H0l40.34,32.91Z"/>
        <path class="cls-1" d="m67.89,37.58l-20.27-16.54v12.81l11.91,9.72c2.71-1.71,5.61-3.72,8.36-5.99Z"/>
        <path class="cls-1" d="m47.62,38.59v11.41s3.67-1.59,8.56-4.42l-8.56-6.99Z"/>
        <path class="cls-1" d="m40.22,37.57l-20.29-16.56v12.7l12,9.79c2.69-1.7,5.56-3.69,8.29-5.94Z"/>
        <path class="cls-1" d="m19.94,38.46v11.54s3.71-1.61,8.66-4.47l-8.66-7.07Z"/>
      </g>
      <polygon class="cls-1" points="110.33 32.84 102.52 32.84 108.38 15.94 116.19 15.94 110.33 32.84"/>
      <polygon class="cls-1" points="227.59 32.83 219.81 32.83 226.09 14.64 233.87 14.64 227.59 32.83"/>
      <polygon class="cls-1" points="123.83 10.92 99.17 10.92 100.4 14.66 125.03 14.66 123.83 10.92"/>
      <polygon class="cls-1" points="273.24 25.79 265.88 25.79 269.72 14.65 261.93 14.65 255.7 32.83 270.87 32.83 273.24 25.79"/>
      <polygon class="cls-1" points="290.99 25.79 283.63 25.79 287.47 14.65 279.69 14.65 273.45 32.83 288.62 32.83 290.99 25.79"/>
      <path class="cls-1" d="m207.48,10.92h-14.43l1.13,3.73h12.31v.02h0c3.79,0,5.34.7,5.34,3.96s-5.24,7.85-9.03,7.85h0l3.69-10.56h-7.98l-5.87,16.9h7.98l5.87-.02c8.09,0,15.76-7.48,15.76-14.44s-7.42-7.46-14.77-7.46Z"/>
      <path class="cls-1" d="m242.55,24.44s3.14-.03,4.85-4.58c1.99-5.28-1.92-5.25-1.92-5.25h-10.18l-1.32,3.83h5.84l-1.03,2.83h-5.8l-1.1,3.17h1.51s1.44.33,2.32,2.51c1,2.47-.93,5.89-.93,5.89h8.08s1.48-3.33.86-5.85c-.46-1.86-1.17-2.55-1.17-2.55Z"/>
      <polygon class="cls-1" points="173.74 14.64 165.94 14.64 159.61 32.83 167.4 32.83 173.74 14.64"/>
      <polygon class="cls-1" points="186.38 14.64 182.7 25.43 174.83 16.32 172.18 24.17 179.66 32.83 180.2 32.83 187.56 32.83 193.73 14.64 186.38 14.64"/>
      <polygon class="cls-1" points="132.72 14.65 124.92 14.65 118.57 32.84 126.37 32.84 132.72 14.65"/>
      <polygon class="cls-1" points="94.94 21.94 91.98 30.62 93.63 30.62 96.59 21.94 93.63 13.13 91.98 13.13 94.94 21.94"/>
      <polygon class="cls-1" points="297.43 21.94 300.39 30.62 298.74 30.62 295.78 21.94 298.74 13.13 300.39 13.13 297.43 21.94"/>
      <polygon class="cls-1" points="90.47 21.94 87.5 30.62 89.16 30.62 92.12 21.94 89.16 13.13 87.5 13.13 90.47 21.94"/>
      <polygon class="cls-1" points="162.63 16.3 163.93 12.56 156.3 12.56 154.99 16.3 162.63 16.3"/>
      <polygon class="cls-1" points="258.21 16.3 259.5 12.56 251.88 12.56 250.58 16.3 258.21 16.3"/>
      <polygon class="cls-1" points="145.31 14.64 141.66 25.43 135.31 18.59 131.63 22.73 128.29 32.84 131.87 32.84 135.28 29.07 138.73 32.83 146.52 32.83 152.69 14.64 145.31 14.64"/>
      <polygon class="cls-1" points="158.77 27.4 162.18 17.6 154.54 17.6 149.68 31.51 158.77 27.4"/>
      <g>
        <polygon class="cls-1" points="156.99 32.52 158.03 29.53 149.78 33.26 151.85 34.84 156.99 32.52"/>
        <polygon class="cls-1" points="153.33 35.96 155.27 37.44 156.25 34.64 153.33 35.96"/>
      </g>
      <polygon class="cls-1" points="254.32 27.57 257.76 17.6 250.13 17.6 245.27 31.67 254.32 27.57"/>
      <g>
        <polygon class="cls-1" points="252.56 32.68 253.59 29.7 245.53 33.34 247.61 34.92 252.56 32.68"/>
        <polygon class="cls-1" points="249.08 36.05 250.92 37.44 251.83 34.81 249.08 36.05"/>
      </g>
      <g>
        <path class="cls-1" d="m159.17,38.26v-3.39h.45v1.68l1.68-1.68h.61l-1.42,1.37,1.49,2.02h-.59l-1.21-1.72-.56.54v1.18h-.45Z"/>
        <path class="cls-1" d="m162.34,38.26l1.3-3.39h.48l1.39,3.39h-.51l-.4-1.03h-1.42l-.37,1.03h-.48Zm.98-1.39h1.15l-.35-.94c-.11-.29-.19-.52-.24-.7-.04.22-.1.43-.18.65l-.37,1Z"/>
        <path class="cls-1" d="m166.07,37.17l.42-.04c.02.17.07.31.14.42.07.11.19.2.34.26.15.07.33.1.52.1.17,0,.32-.03.45-.08.13-.05.23-.12.29-.21.06-.09.1-.19.1-.29s-.03-.2-.09-.28c-.06-.08-.16-.15-.31-.2-.09-.04-.29-.09-.6-.16-.31-.08-.53-.15-.65-.21-.16-.08-.28-.19-.36-.32-.08-.13-.12-.27-.12-.42,0-.17.05-.33.15-.48.1-.15.24-.26.43-.34.19-.08.39-.11.62-.11.25,0,.47.04.67.12.19.08.34.2.44.36.1.16.16.34.17.53l-.43.03c-.02-.21-.1-.38-.23-.49-.13-.11-.33-.16-.59-.16s-.47.05-.59.15c-.12.1-.19.22-.19.36,0,.12.04.22.13.3.09.08.31.16.68.24.37.08.61.15.75.22.2.09.34.21.44.35.09.14.14.3.14.48s-.05.35-.15.51c-.1.16-.25.28-.45.37-.19.09-.41.13-.65.13-.31,0-.56-.04-.77-.13-.21-.09-.37-.23-.49-.4-.12-.18-.18-.38-.19-.61Z"/>
        <path class="cls-1" d="m169.37,38.26l1.3-3.39h.48l1.39,3.39h-.51l-.4-1.03h-1.42l-.37,1.03h-.48Zm.98-1.39h1.15l-.35-.94c-.11-.29-.19-.52-.24-.7-.04.22-.1.43-.18.65l-.37,1Z"/>
        <path class="cls-1" d="m173.26,38.26v-3.39h.46l1.78,2.66v-2.66h.43v3.39h-.46l-1.78-2.67v2.67h-.43Z"/>
        <path class="cls-1" d="m177.05,38.26v-3.39h2.45v.4h-2v1.04h1.88v.4h-1.88v1.16h2.08v.4h-2.53Z"/>
        <path class="cls-1" d="m183.01,38.26v-2.99h-1.12v-.4h2.69v.4h-1.12v2.99h-.45Z"/>
        <path class="cls-1" d="m185.4,38.26v-3.39h2.45v.4h-2v1.04h1.88v.4h-1.88v1.16h2.08v.4h-2.53Z"/>
        <path class="cls-1" d="m189.77,38.26v-2.99h-1.12v-.4h2.69v.4h-1.12v2.99h-.45Z"/>
        <path class="cls-1" d="m191.94,36.61c0-.56.15-1,.45-1.32.3-.32.69-.48,1.17-.48.31,0,.6.08.85.23.25.15.44.36.58.63.13.27.2.57.2.91s-.07.65-.21.92c-.14.27-.34.48-.59.62-.25.14-.53.21-.82.21-.32,0-.6-.08-.86-.23-.25-.15-.44-.37-.57-.63-.13-.27-.19-.55-.19-.85Zm.46,0c0,.41.11.73.33.97.22.24.5.35.83.35s.62-.12.83-.36c.22-.24.33-.57.33-1.01,0-.28-.05-.52-.14-.72-.09-.21-.23-.37-.41-.48-.18-.11-.38-.17-.6-.17-.32,0-.59.11-.82.33-.23.22-.34.58-.34,1.09Z"/>
        <path class="cls-1" d="m199.33,36.61c0-.56.15-1,.45-1.32.3-.32.69-.48,1.17-.48.31,0,.6.08.85.23.25.15.44.36.57.63.13.27.2.57.2.91s-.07.65-.21.92c-.14.27-.34.48-.59.62-.26.14-.53.21-.82.21-.32,0-.61-.08-.86-.23-.25-.15-.44-.37-.57-.63-.13-.27-.2-.55-.2-.85Zm.46,0c0,.41.11.73.33.97.22.24.5.35.83.35s.62-.12.84-.36c.22-.24.33-.57.33-1.01,0-.28-.05-.52-.14-.72-.09-.21-.23-.37-.41-.48-.18-.11-.38-.17-.61-.17-.32,0-.59.11-.82.33-.23.22-.34.58-.34,1.09Z"/>
        <path class="cls-1" d="m203.53,38.26v-3.39h2.29v.4h-1.84v1.05h1.59v.4h-1.59v1.54h-.45Z"/>
        <path class="cls-1" d="m206.78,38.26v-3.39h2.29v.4h-1.84v1.05h1.59v.4h-1.59v1.54h-.45Z"/>
        <path class="cls-1" d="m210.08,38.26v-3.39h.45v3.39h-.45Z"/>
        <path class="cls-1" d="m214.1,37.07l.45.11c-.09.37-.26.65-.51.84-.24.19-.54.29-.9.29s-.66-.08-.89-.22c-.23-.15-.4-.36-.52-.65-.12-.28-.18-.59-.18-.91,0-.35.07-.66.2-.92.13-.26.33-.46.58-.6.25-.14.52-.2.82-.2.34,0,.63.09.86.26.23.17.39.42.48.73l-.44.1c-.08-.25-.19-.43-.34-.54-.15-.11-.34-.17-.56-.17-.26,0-.48.06-.65.19-.18.12-.3.29-.37.5-.07.21-.11.43-.11.65,0,.29.04.54.13.76.08.22.21.38.39.48.18.11.37.16.58.16.25,0,.46-.07.64-.22.17-.15.29-.36.35-.65Z"/>
        <path class="cls-1" d="m215.54,38.26v-3.39h.45v3.39h-.45Z"/>
        <path class="cls-1" d="m216.76,38.26l1.3-3.39h.48l1.39,3.39h-.51l-.4-1.03h-1.42l-.37,1.03h-.48Zm.98-1.39h1.15l-.35-.94c-.11-.29-.19-.52-.24-.7-.04.22-.1.43-.18.65l-.37,1Z"/>
        <path class="cls-1" d="m220.63,38.26v-3.39h.45v2.99h1.67v.4h-2.12Z"/>
        <path class="cls-1" d="m227.56,37.07l.45.11c-.09.37-.26.65-.51.84-.24.19-.54.29-.9.29s-.66-.08-.89-.22c-.23-.15-.4-.36-.52-.65-.12-.28-.18-.59-.18-.91,0-.35.07-.66.2-.92.14-.26.33-.46.58-.6.25-.14.52-.2.82-.2.34,0,.63.09.86.26.23.17.39.42.48.73l-.44.1c-.08-.25-.19-.43-.34-.54-.15-.11-.34-.17-.56-.17-.26,0-.48.06-.65.19-.17.12-.3.29-.37.5-.07.21-.11.43-.11.65,0,.29.04.54.13.76.08.22.22.38.39.48.18.11.37.16.58.16.25,0,.46-.07.64-.22.17-.15.29-.36.35-.65Z"/>
        <path class="cls-1" d="m228.99,38.26v-3.39h.45v3.39h-.45Z"/>
        <path class="cls-1" d="m230.59,38.26v-3.39h1.5c.3,0,.53.03.69.09.16.06.28.17.38.32.09.15.14.32.14.51,0,.24-.08.44-.23.61-.16.17-.4.27-.72.32.12.06.21.11.27.17.13.12.25.27.37.45l.59.92h-.56l-.45-.71c-.13-.2-.24-.36-.32-.47-.08-.11-.16-.18-.23-.23-.07-.04-.14-.07-.2-.09-.05-.01-.13-.02-.25-.02h-.52v1.51h-.45Zm.45-1.9h.97c.2,0,.37-.02.48-.06.12-.04.2-.11.26-.2.06-.09.09-.19.09-.3,0-.16-.06-.29-.18-.4-.12-.1-.3-.15-.55-.15h-1.07v1.12Z"/>
        <path class="cls-1" d="m236.79,37.07l.45.11c-.09.37-.26.65-.51.84-.25.19-.54.29-.9.29s-.66-.08-.89-.22c-.23-.15-.4-.36-.52-.65-.12-.28-.18-.59-.18-.91,0-.35.07-.66.2-.92.13-.26.33-.46.58-.6.25-.14.52-.2.82-.2.34,0,.62.09.86.26.23.17.39.42.48.73l-.44.1c-.08-.25-.19-.43-.34-.54-.15-.11-.34-.17-.57-.17-.26,0-.48.06-.65.19-.17.12-.3.29-.37.5-.07.21-.11.43-.11.65,0,.29.04.54.13.76.08.22.21.38.39.48.18.11.37.16.58.16.25,0,.46-.07.64-.22.17-.15.29-.36.35-.65Z"/>
        <path class="cls-1" d="m238.13,38.26v-3.39h.45v2.99h1.67v.4h-2.12Z"/>
        <path class="cls-1" d="m241.15,38.26v-3.39h2.45v.4h-2v1.04h1.88v.4h-1.88v1.16h2.08v.4h-2.53Z"/>
      </g>
    </g>
  </g>
</svg>