<?xml version="1.0" encoding="UTF-8"?>
<svg id="_レイヤー_2" data-name="レイヤー 2" xmlns="http://www.w3.org/2000/svg" viewBox="0 0 22.27 18.27">
  <defs>
    <style>
      .cls-1 {
        fill: #4d4d4d;
      }
    </style>
  </defs>
  <g id="_メニューバー" data-name="メニューバー">
    <path class="cls-1" d="m22.27,2.23s-1.74.76-2.5.75c-.02-.05-.04-.09-.06-.14.42-.35,1.74-1.51,1.9-2.39,0,0-1.62.89-2.7,1.14-.87-.98-2.13-1.6-3.54-1.6-2.61,0-4.73,2.12-4.73,4.73,0,.32.03.64.09.94-1.64-.04-5.67-.62-9.42-4.88,0,0-2.04,3.61,1.38,6.31,0,0-1.18.13-1.9-.59,0,0-.33,2.96,3.35,4.6,0,0-.99.33-1.77.2,0,0,.66,2.69,4.2,3.22,0,0-2.36,2.1-6.57,1.84,0,0,4.93,3.48,12.09,1.05,7.16-2.43,8.15-11.36,8.01-12.68,0,0,1.45-1.05,2.17-2.5Z"/>
  </g>
</svg>