<?xml version="1.0" encoding="UTF-8"?>
<svg id="_レイヤー_2" data-name="レイヤー 2" xmlns="http://www.w3.org/2000/svg" viewBox="0 0 400 90">
  <defs>
    <style>
      .cls-1 {
        fill: #fff;
      }
    </style>
  </defs>
  <g id="_デザイン" data-name="デザイン">
    <rect class="cls-1" width="400" height="90"/>
    <g>
      <g>
        <path d="m165.32,46.71v10.29h-7.56v-10.29l-10.33-21.43h8.13l5,10.78c.53,1.14.98,2.32,1.42,3.5.41-1.22.85-2.28,1.38-3.5l4.55-10.78h7.73l-10.33,21.43Z"/>
        <path d="m199.96,45.08c0,8.66-4.92,12.32-11.35,12.32s-11.35-3.62-11.35-11.67c0-8.66,4.92-12.32,11.35-12.32s11.35,3.62,11.35,11.67Zm-7.12.24c0-3.78-1.22-6.83-4.23-6.83-2.85,0-4.23,2.16-4.23,6.99,0,3.78,1.22,6.83,4.23,6.83,2.85,0,4.23-2.2,4.23-6.99Z"/>
        <path d="m224.2,33.82v23.18h-6.47v-3.13h-.08c-1.34,2.4-3.74,3.54-6.67,3.54-4.15,0-7.36-2.48-7.36-7.89v-15.7h6.91v14.23c0,3.13.98,4.23,3.21,4.23,1.99,0,3.54-1.22,3.54-4.23v-14.23h6.91Z"/>
        <path d="m251.85,31.17h-8.54v25.82h-7.32v-25.82h-8.54v-5.9h24.4v5.9Z"/>
        <path d="m275.68,33.82v23.18h-6.47v-3.13h-.08c-1.34,2.4-3.74,3.54-6.67,3.54-4.15,0-7.36-2.48-7.36-7.89v-15.7h6.91v14.23c0,3.13.98,4.23,3.21,4.23,1.99,0,3.54-1.22,3.54-4.23v-14.23h6.91Z"/>
        <path d="m286.78,37.31c1.42-2.48,3.7-3.9,6.63-3.9,6.06,0,9.35,4.27,9.35,12.08,0,6.95-4.07,11.91-9.76,11.91-2.81,0-4.92-1.22-6.26-3.5l-.08.04c.41.85.61,1.34.61,2.85v.2h-6.71V24.46h6.91v7.73c0,2.03-.33,3.94-.81,5.12h.12Zm8.95,8.17c0-4.55-1.71-7.04-4.35-7.04s-4.03,2.48-4.03,7.08,1.34,6.91,4.23,6.91c2.44,0,4.15-2.44,4.15-6.95Z"/>
        <path d="m325.94,47.44h-13.74c.41,3.86,1.95,5.29,4.03,5.29,1.55,0,2.56-1.06,3.05-3.01l6.06,1.83c-1.95,4.68-5.25,5.86-9.19,5.86-6.99,0-10.94-4.15-10.94-11.63,0-8.3,4.43-12.36,10.37-12.36,7.4,0,10.37,4.72,10.37,10.49v3.54Zm-6.43-4.64c-.04-3.17-1.59-4.76-3.58-4.76-1.71,0-3.25,1.06-3.7,4.76h7.28Z"/>
      </g>
      <g>
        <rect x="72.84" y="22.25" width="55" height="38.73" rx="7.06" ry="7.06"/>
        <polygon class="cls-1" points="112.35 41.23 93.76 30.5 93.76 51.96 112.35 41.23"/>
      </g>
    </g>
  </g>
</svg>